<svg xmlns="http://www.w3.org/2000/svg" id="Layer_17" data-name="Layer 17" viewBox="0 0 700 500"><defs><style>.cls-1{fill:#4e69ff;}.cls-2,.cls-3,.cls-5{fill:#9fbfff;}.cls-2,.cls-7{opacity:0.47;}.cls-4{fill:#1b1b25;}.cls-5{opacity:0.41;}.cls-6{opacity:0.18;}.cls-8{opacity:0.31;}.cls-9{fill:#292930;}.cls-10{fill:#fff;}.cls-11{fill:#ccc;}.cls-12{opacity:0.28;}.cls-13{fill:#ffb54a;}.cls-14{opacity:0.5;}.cls-15{fill:#c12736;}.cls-16{fill:#f13c45;}.cls-17{fill:#3a5ce8;}.cls-18{opacity:0.43;}.cls-19{fill:#e29837;}</style></defs><title> Instant Notifications </title><circle class="cls-1" cx="564.02" cy="403.22" r="3.5"></circle><circle class="cls-2" cx="545.77" cy="446.52" r="3.5"></circle><circle class="cls-3" cx="130.8" cy="83.14" r="2.72"></circle><path class="cls-1" d="M340.37,48.4a4.85,4.85,0,1,1-4.85-4.85A4.85,4.85,0,0,1,340.37,48.4Z"></path><path class="cls-1" d="M135.38,120.08a4.58,4.58,0,1,1-4.58-4.57A4.58,4.58,0,0,1,135.38,120.08Z"></path><circle class="cls-4" cx="165.73" cy="77.25" r="1.72"></circle><path class="cls-3" d="M565.52,92.37a2.72,2.72,0,1,1,3.77-.76A2.72,2.72,0,0,1,565.52,92.37Z"></path><path class="cls-3" d="M201.38,448.79a2.72,2.72,0,1,1,3.77-.76A2.72,2.72,0,0,1,201.38,448.79Z"></path><circle class="cls-1" cx="510.38" cy="69.65" r="4.57" transform="translate(-3.64 103.09) rotate(-11.49)"></circle><path class="cls-4" d="M525.76,123.88a1.72,1.72,0,1,1,2.38-.48A1.71,1.71,0,0,1,525.76,123.88Z"></path><path class="cls-5" d="M180.55,33.61c1.87-9.57,12.91-15.47,24.66-13.17s27.92,13.52,26,23.09-20.38,6.49-31.58,9.1C184.07,56.27,178.67,43.18,180.55,33.61Z"></path><g class="cls-6"><path class="cls-3" d="M544.06,411.76c18.5-24.07,30.67-56.88,29.06-87.57-1.66-31.85-14.31-60.91-10.13-93.81,2.38-18.82,8.94-37.1,9.27-56.06C573.83,84.73,428.8,12.79,374.48,98.68c-3.72,5.89-6.75,12.36-11.78,17.19a28.45,28.45,0,0,1-24,7.41C324.9,121,313,110.69,299.53,106.55a129,129,0,0,0-37.63-5.61,144.64,144.64,0,0,0-72.44,19.77c-43.63,25.36-70.73,73-62,123.89,5.19,30.09,23,56.5,42.9,79.65,38.09,44.28,85.41,80.29,137.23,107.22C349.49,453.23,396,469.39,443,466A139.72,139.72,0,0,0,544.06,411.76Z"></path></g><g class="cls-7"><path class="cls-3" d="M571.25,320.94c4-28-1.12-60.19-16.46-84.37-15.93-25.09-39.48-42.89-51.14-71.51-6.67-16.36-9.71-34.19-18.12-49.73-39.7-73.44-190.32-65.48-195.12,29.07-.33,6.49.18,13.13-1.7,19.34a26.49,26.49,0,0,1-16.08,17c-12.26,4.44-26.63,1.55-39.45,4.35a120.28,120.28,0,0,0-33.11,12.65,135,135,0,0,0-49.75,49.18c-23.81,40.55-24,91.64,6.37,128.9,18,22.06,44.5,35.35,71.25,45,51.17,18.52,106.05,26.1,160.43,24.25,43.93-1.5,89.06-9.64,125.7-33.94A130.13,130.13,0,0,0,571.25,320.94Z"></path></g><g class="cls-7"><path class="cls-3" d="M547.1,322.74c3.17-22.15-.89-47.62-13-66.75-12.6-19.84-31.23-33.92-40.45-56.56-5.28-12.94-7.68-27.05-14.33-39.34-31.41-58.09-150.56-51.8-154.35,23-.26,5.13.14,10.38-1.35,15.29a21,21,0,0,1-12.72,13.45c-9.7,3.51-21.07,1.22-31.21,3.44a94.71,94.71,0,0,0-26.19,10,106.64,106.64,0,0,0-39.35,38.9c-18.84,32.07-19,72.49,5,102,14.22,17.44,35.21,28,56.37,35.61C316,416.41,359.41,422.41,402.42,421c34.76-1.19,70.45-7.63,99.44-26.85A103,103,0,0,0,547.1,322.74Z"></path></g><g class="cls-8"><path class="cls-3" d="M546.7,154.32a6.29,6.29,0,1,1-4.71-7.55A6.3,6.3,0,0,1,546.7,154.32Z"></path></g><g class="cls-8"><circle class="cls-3" cx="549.27" cy="53.25" r="11.9" transform="translate(148.57 432.7) rotate(-48.98)"></circle></g><g class="cls-8"><circle class="cls-3" cx="159.66" cy="437.52" r="19.55" transform="translate(-231.55 184.79) rotate(-37.09)"></circle></g><g class="cls-8"><path class="cls-3" d="M161.29,199.8a4.11,4.11,0,1,1-3.52-4.62A4.11,4.11,0,0,1,161.29,199.8Z"></path></g><path class="cls-4" d="M515.62,359.07,412.07,421.16a15.21,15.21,0,0,1-15.6,0L164.87,283.63A12.72,12.72,0,0,1,158.64,273l-.44-18.37,117.68-61.78L521.5,329.46v19.23A12.11,12.11,0,0,1,515.62,359.07Z"></path><path class="cls-9" d="M517.07,335.1,415.8,396a24.19,24.19,0,0,1-24.8.09L162.8,261a9.38,9.38,0,0,1,.1-16.2l104.64-60.25a16.66,16.66,0,0,1,16.66,0L516.94,319.38A9.12,9.12,0,0,1,517.07,335.1Z"></path><polygon class="cls-10" points="182.52 261.97 292.24 197.6 485.7 309.54 372.66 374.35 182.52 261.97"></polygon><path class="cls-11" d="M449.73,358.74c-7.61,0-13.8-3.89-13.8-8.67s6.19-8.67,13.8-8.67,13.8,3.89,13.8,8.67S457.34,358.74,449.73,358.74Zm0-16.34c-7.05,0-12.8,3.44-12.8,7.67s5.75,7.67,12.8,7.67,12.8-3.44,12.8-7.67S456.79,342.4,449.73,342.4Z"></path><path class="cls-11" d="M460.86,383.78a2,2,0,0,1-.95-.24,2,2,0,0,1-1.06-1.77v-3.61a2.36,2.36,0,0,1,1.11-2L479.36,364h0a1.66,1.66,0,0,1,2.54,1.33l.16,3.37a2.45,2.45,0,0,1-1.09,2.17l-19,12.6A2,2,0,0,1,460.86,383.78Zm19-19L460.49,377a1.37,1.37,0,0,0-.64,1.16v3.61a1,1,0,0,0,1.56.84l19-12.6a1.51,1.51,0,0,0,.65-1.29l-.17-3.37a.63.63,0,0,0-.36-.55.61.61,0,0,0-.65,0Z"></path><path class="cls-11" d="M206,234.86a.49.49,0,0,1-.44-.26.51.51,0,0,1,.19-.68l35.74-20a.51.51,0,0,1,.68.19.5.5,0,0,1-.2.68l-35.73,20A.44.44,0,0,1,206,234.86Z"></path><path class="cls-11" d="M219.4,308a2.52,2.52,0,0,1-1.3-.36l-30.15-18a2.53,2.53,0,0,1-1.23-2.3h0a2.54,2.54,0,0,1,3.82-2.07l30.16,17.66a2.54,2.54,0,0,1,1.26,2.31l0,.38a2.51,2.51,0,0,1-1.34,2.12A2.57,2.57,0,0,1,219.4,308ZM187.72,287.3a1.54,1.54,0,0,0,.74,1.39l30.15,18a1.54,1.54,0,0,0,2.33-1.25l0-.38a1.54,1.54,0,0,0-.76-1.4L190,286a1.54,1.54,0,0,0-2.31,1.26Z"></path><path class="cls-11" d="M259.3,330.06a2.49,2.49,0,0,1-1.27-.34l-30.45-17.54a2.53,2.53,0,0,1-1.27-2.27h0a2.54,2.54,0,0,1,3.79-2.14l30.45,17.16a2.54,2.54,0,0,1,1.3,2.29v.37a2.53,2.53,0,0,1-1.31,2.14A2.47,2.47,0,0,1,259.3,330.06Zm-32-20.13a1.55,1.55,0,0,0,.77,1.38l30.45,17.54a1.53,1.53,0,0,0,1.52,0,1.55,1.55,0,0,0,.79-1.3v-.37a1.55,1.55,0,0,0-.79-1.39l-30.45-17.16a1.54,1.54,0,0,0-2.3,1.29Z"></path><g class="cls-12"><path class="cls-3" d="M466.11,314.6l-14.51-7.77-25.93-14.72a4.44,4.44,0,0,0-4.42,0l-68.71,39.34a3.68,3.68,0,0,0,0,6.37l19.84,11.55a7.5,7.5,0,0,0,7.63,0l60.43-35.88Z"></path><path class="cls-1" d="M468.3,305.76,453.79,298l-25.93-14.72a4.42,4.42,0,0,0-4.41,0l-68.72,39.34a3.68,3.68,0,0,0,0,6.37l19.84,11.55a7.5,7.5,0,0,0,7.63,0l60.43-35.88Z"></path><path class="cls-10" d="M365.86,325.62a.52.52,0,0,1-.43-.24.51.51,0,0,1,.17-.69l35.78-21.55a.49.49,0,0,1,.68.17.48.48,0,0,1-.17.68l-35.77,21.56A.59.59,0,0,1,365.86,325.62Z"></path><path class="cls-10" d="M372.19,329.77a.49.49,0,0,1-.43-.24.5.5,0,0,1,.17-.69l43-25.62a.48.48,0,0,1,.68.17.5.5,0,0,1-.17.69l-43,25.62A.45.45,0,0,1,372.19,329.77Z"></path><path class="cls-10" d="M379,333.58a.52.52,0,0,1-.43-.24.5.5,0,0,1,.17-.69l39.55-24.23a.51.51,0,0,1,.69.16.5.5,0,0,1-.16.69l-39.56,24.24A.48.48,0,0,1,379,333.58Z"></path><path class="cls-10" d="M428.74,304.23h-.08a11.61,11.61,0,0,1-6.83-2.14,6.52,6.52,0,0,1-2.89-5.24c0-4,4.38-7.27,9.73-7.27h.08a11.54,11.54,0,0,1,6.83,2.14,6.13,6.13,0,0,1-.06,10.45A11.54,11.54,0,0,1,428.74,304.23Zm-.07-13.65c-4.8,0-8.71,2.8-8.73,6.27a5.55,5.55,0,0,0,2.48,4.44,11.22,11.22,0,0,0,12.51.07,5.15,5.15,0,0,0,.06-8.84,10.55,10.55,0,0,0-6.25-1.94Z"></path><path class="cls-3" d="M377.38,263.45l-14.51-7.76L337,241a4.47,4.47,0,0,0-4.42,0l-68.71,39.34a3.68,3.68,0,0,0,0,6.37l19.84,11.56a7.52,7.52,0,0,0,7.63,0l60.43-35.88Z"></path><path class="cls-1" d="M334.72,232.13,266,271.47a3.68,3.68,0,0,0,0,6.37l19.84,11.56a7.53,7.53,0,0,0,7.63,0l71.6-42.51-25.92-14.73A4.47,4.47,0,0,0,334.72,232.13Z"></path><polygon class="cls-1" points="379.57 254.61 365.06 246.85 353.88 253.48 379.57 254.61"></polygon><path class="cls-10" d="M277.13,274.47a.5.5,0,0,1-.42-.24.49.49,0,0,1,.17-.69L312.65,252a.5.5,0,0,1,.69.17.51.51,0,0,1-.17.69L277.39,274.4A.48.48,0,0,1,277.13,274.47Z"></path><path class="cls-10" d="M283.46,278.63a.51.51,0,0,1-.43-.25.49.49,0,0,1,.18-.68l43-25.63a.51.51,0,0,1,.69.17.51.51,0,0,1-.18.69l-43,25.63A.59.59,0,0,1,283.46,278.63Z"></path><path class="cls-10" d="M290.26,282.43a.48.48,0,0,1-.42-.24.5.5,0,0,1,.16-.69l39.56-24.23a.5.5,0,1,1,.52.85l-39.56,24.24A.48.48,0,0,1,290.26,282.43Z"></path><path class="cls-10" d="M340,253.08h-.08a11.66,11.66,0,0,1-6.84-2.14,6.53,6.53,0,0,1-2.89-5.24c0-4,4.39-7.33,9.81-7.27a11.66,11.66,0,0,1,6.84,2.14,6.51,6.51,0,0,1,2.88,5.24h0A6.49,6.49,0,0,1,346.8,251,11.56,11.56,0,0,1,340,253.08Zm-.08-13.65c-4.8,0-8.7,2.8-8.73,6.27a5.57,5.57,0,0,0,2.49,4.44,10.52,10.52,0,0,0,6.24,1.94,10.76,10.76,0,0,0,6.27-1.86,5.16,5.16,0,0,0,.05-8.85,10.59,10.59,0,0,0-6.24-1.94Z"></path><path class="cls-3" d="M389,287l-22.38-12.71a4.47,4.47,0,0,0-4.41,0l-68.72,39.34a3.68,3.68,0,0,0,0,6.37l37.16,22.66-3.88-14.58h0l62.29-37A2.37,2.37,0,0,0,389,287Z"></path><path class="cls-13" d="M389.91,279.07,367.5,266.34a4.42,4.42,0,0,0-4.41,0l-68.72,39.34a3.68,3.68,0,0,0,0,6.37l19.84,11.55a7.55,7.55,0,0,0,1.3.59h0l16,10.5-3.88-14.58,62.32-37A2.35,2.35,0,0,0,389.91,279.07Z"></path><path class="cls-10" d="M320.63,304.11a.5.5,0,0,1-.26-.93l43-25.63a.5.5,0,0,1,.68.18.48.48,0,0,1-.17.68l-43,25.63A.45.45,0,0,1,320.63,304.11Z"></path><path class="cls-10" d="M327.43,307.91a.51.51,0,0,1-.43-.23.5.5,0,0,1,.17-.69l39.56-24.24a.49.49,0,0,1,.68.17.5.5,0,0,1-.16.69l-39.56,24.23A.48.48,0,0,1,327.43,307.91Z"></path><path class="cls-3" d="M303.75,232.28l-22.37-12.71a4.47,4.47,0,0,0-4.42,0l-68.71,39.35a3.68,3.68,0,0,0,0,6.37l37.16,22.65-3.88-14.58h0l62.29-37A2.37,2.37,0,0,0,303.75,232.28Z"></path><path class="cls-13" d="M304.71,224.37,282.3,211.64a4.45,4.45,0,0,0-4.41,0L209.17,251a3.68,3.68,0,0,0,0,6.37L229,268.92a8.33,8.33,0,0,0,1.3.58h0l16,10.5-3.88-14.58,62.32-37A2.35,2.35,0,0,0,304.71,224.37Z"></path><path class="cls-10" d="M235.43,249.41a.49.49,0,0,1-.43-.24.51.51,0,0,1,.17-.69l43-25.62a.5.5,0,0,1,.69.17.51.51,0,0,1-.18.69l-43,25.62A.48.48,0,0,1,235.43,249.41Z"></path><path class="cls-10" d="M242.23,253.22a.5.5,0,0,1-.26-.93l39.56-24.23a.49.49,0,0,1,.68.16.5.5,0,0,1-.16.69l-39.56,24.24A.48.48,0,0,1,242.23,253.22Z"></path></g><path class="cls-3" d="M496.56,285.59,482,277.83,456.12,263.1a4.47,4.47,0,0,0-4.42,0L383,302.45a3.68,3.68,0,0,0,0,6.37l19.84,11.56a7.55,7.55,0,0,0,7.63,0l60.43-35.89Z"></path><path class="cls-1" d="M498.75,276.75,484.24,269l-25.93-14.73a4.45,4.45,0,0,0-4.41,0l-68.72,39.34a3.68,3.68,0,0,0,0,6.37L405,311.54a7.55,7.55,0,0,0,7.63,0l60.43-35.89Z"></path><path class="cls-10" d="M396.31,296.61a.49.49,0,0,1-.43-.24.5.5,0,0,1,.17-.69l35.78-21.55a.5.5,0,0,1,.51.86l-35.77,21.55A.48.48,0,0,1,396.31,296.61Z"></path><path class="cls-10" d="M402.64,300.77a.5.5,0,0,1-.26-.93l43-25.63a.5.5,0,0,1,.51.86l-43,25.63A.59.59,0,0,1,402.64,300.77Z"></path><path class="cls-10" d="M409.44,304.57a.5.5,0,0,1-.26-.92l39.55-24.24a.5.5,0,0,1,.69.17.49.49,0,0,1-.17.68L409.7,304.5A.48.48,0,0,1,409.44,304.57Z"></path><path class="cls-10" d="M459.19,275.22h-.08a11.54,11.54,0,0,1-6.83-2.14,6.5,6.5,0,0,1-2.89-5.24c0-4,4.38-7.27,9.73-7.27h.08a11.63,11.63,0,0,1,6.83,2.14,6.13,6.13,0,0,1-.06,10.45A11.54,11.54,0,0,1,459.19,275.22Zm-.07-13.65c-4.8,0-8.71,2.81-8.73,6.28a5.55,5.55,0,0,0,2.48,4.43,10.55,10.55,0,0,0,6.25,1.94h.07a10.57,10.57,0,0,0,6.19-1.86,5.56,5.56,0,0,0,2.54-4.41h0a5.54,5.54,0,0,0-2.49-4.44,10.64,10.64,0,0,0-6.24-1.94Z"></path><path class="cls-3" d="M407.83,234.44l-14.51-7.76L367.4,212a4.47,4.47,0,0,0-4.42,0l-68.71,39.35a3.68,3.68,0,0,0,0,6.37l19.84,11.55a7.53,7.53,0,0,0,7.63,0l60.43-35.88Z"></path><path class="cls-1" d="M365.17,203.12l-68.71,39.35a3.68,3.68,0,0,0,0,6.37l19.85,11.55a7.53,7.53,0,0,0,7.63,0l71.6-42.52-25.92-14.73A4.49,4.49,0,0,0,365.17,203.12Z"></path><polygon class="cls-1" points="410.02 225.6 395.51 217.84 384.33 224.48 410.02 225.6"></polygon><path class="cls-10" d="M307.58,245.46a.49.49,0,0,1-.25-.92L343.1,223a.5.5,0,0,1,.52.86l-35.78,21.55A.48.48,0,0,1,307.58,245.46Z"></path><path class="cls-10" d="M313.91,249.62a.52.52,0,0,1-.43-.24.51.51,0,0,1,.18-.69l43-25.63a.51.51,0,0,1,.69.18.5.5,0,0,1-.18.68l-43,25.63A.48.48,0,0,1,313.91,249.62Z"></path><path class="cls-10" d="M320.71,253.43a.49.49,0,0,1-.42-.24.5.5,0,0,1,.16-.69L360,228.26a.5.5,0,0,1,.52.86L321,253.35A.5.5,0,0,1,320.71,253.43Z"></path><path class="cls-10" d="M370.46,224.07h-.08a11.56,11.56,0,0,1-6.83-2.13,6.14,6.14,0,0,1,.06-10.46,12.27,12.27,0,0,1,13.7.08,6.15,6.15,0,0,1-.07,10.46A11.58,11.58,0,0,1,370.46,224.07Zm-.07-13.64a10.57,10.57,0,0,0-6.19,1.86,5.14,5.14,0,0,0-.05,8.84,10.5,10.5,0,0,0,6.24,1.94h.08a10.59,10.59,0,0,0,6.19-1.86,5.16,5.16,0,0,0,0-8.85,10.61,10.61,0,0,0-6.24-1.93Z"></path><path class="cls-3" d="M419.4,258,397,245.26a4.44,4.44,0,0,0-4.42,0l-68.71,39.34a3.68,3.68,0,0,0,0,6.37L361,313.63l-3.88-14.58h0l62.28-37A2.37,2.37,0,0,0,419.4,258Z"></path><path class="cls-13" d="M420.36,250.06,398,237.33a4.47,4.47,0,0,0-4.42,0l-68.71,39.34a3.68,3.68,0,0,0,0,6.37l19.84,11.56a7.49,7.49,0,0,0,1.3.58h0l16,10.51-3.88-14.58,62.32-37A2.35,2.35,0,0,0,420.36,250.06Z"></path><path class="cls-10" d="M351.08,275.1a.49.49,0,0,1-.43-.24.5.5,0,0,1,.17-.69l43-25.62a.5.5,0,0,1,.51.86l-43,25.62A.47.47,0,0,1,351.08,275.1Z"></path><path class="cls-10" d="M357.88,278.91a.52.52,0,0,1-.43-.24.5.5,0,0,1,.17-.69l39.55-24.23a.51.51,0,0,1,.69.16.5.5,0,0,1-.16.69l-39.56,24.24A.48.48,0,0,1,357.88,278.91Z"></path><path class="cls-3" d="M334.2,203.27l-22.38-12.71a4.45,4.45,0,0,0-4.41,0l-68.72,39.34a3.68,3.68,0,0,0,0,6.37l37.16,22.65L272,244.35h0l62.29-37A2.37,2.37,0,0,0,334.2,203.27Z"></path><path class="cls-13" d="M335.16,195.36l-22.41-12.72a4.45,4.45,0,0,0-4.41,0L239.62,222a3.68,3.68,0,0,0,0,6.37l19.84,11.55a8.39,8.39,0,0,0,1.3.59h0l16,10.51-3.88-14.58,62.32-37A2.35,2.35,0,0,0,335.16,195.36Z"></path><path class="cls-10" d="M265.88,220.41a.5.5,0,0,1-.43-.25.5.5,0,0,1,.17-.68l43-25.63a.51.51,0,0,1,.69.17.51.51,0,0,1-.18.69l-43,25.63A.55.55,0,0,1,265.88,220.41Z"></path><path class="cls-10" d="M272.68,224.21a.5.5,0,0,1-.26-.92L312,199.05a.5.5,0,0,1,.52.85l-39.56,24.24A.48.48,0,0,1,272.68,224.21Z"></path><g class="cls-14"><path class="cls-3" d="M438.11,162l-3.21,0a14.54,14.54,0,0,1-14.66-14.42l-.13-16.23a14.54,14.54,0,0,1,14.42-14.66l30.32-.25a14.42,14.42,0,0,0-2.38-.19l-31.49.26a15,15,0,0,0-14.86,15.12l.13,16.73c.07,8.28,6.84,16,15.12,15.95l3.84,0,12.34,11.57,11.56-11.8h0l-9.29,9.44Z"></path><path class="cls-10" d="M447.56,176.6,435,164.83l-3.65,0a14.83,14.83,0,0,1-11-5,17.36,17.36,0,0,1-4.62-11.45l-.13-16.73A15.48,15.48,0,0,1,431,116.05l31.48-.26a15.93,15.93,0,0,1,2.46.19l-.07,1-30.32.25a14,14,0,0,0-13.92,14.16l.13,16.23a14.06,14.06,0,0,0,14,13.92h.12l3.41,0,11.5,11.32,8.94-9.09.71.7h0Zm-12.15-12.77,12.12,11.37,1.6-1.64-11.23-11-3,0h-.13a15.06,15.06,0,0,1-15-14.91l-.13-16.24a15.07,15.07,0,0,1,9.88-14.25,14.5,14.5,0,0,0-12.87,14.52l.13,16.74a16.35,16.35,0,0,0,4.35,10.77,13.84,13.84,0,0,0,10.16,4.69h.11Z"></path><path class="cls-3" d="M479.73,130.9a14.54,14.54,0,0,0-14.66-14.42h-.22l-30.32.25a14.54,14.54,0,0,0-14.42,14.66l.13,16.23A14.54,14.54,0,0,0,434.9,162l3.21,0,11.71,11.52,9.29-9.44,2.23-2.28,4.11,0a14.55,14.55,0,0,0,14.42-14.66Z"></path><path class="cls-10" d="M449.83,174.24,437.9,162.52l-3,0h-.13a15.06,15.06,0,0,1-15-14.91l-.13-16.24a15.05,15.05,0,0,1,14.92-15.16l30.54-.25h.12a15,15,0,0,1,15,14.91l.14,16.23a15.07,15.07,0,0,1-14.92,15.17l-3.9,0Zm-11.52-12.73,11.5,11.32,11.32-11.5,4.31,0a14.07,14.07,0,0,0,13.93-14.16l-.14-16.23a14,14,0,0,0-14-13.92h-.12l-30.54.25a14,14,0,0,0-13.92,14.16l.13,16.23a14.06,14.06,0,0,0,14,13.92h.12Z"></path><path class="cls-3" d="M438.82,141.88a3.8,3.8,0,1,1-1.89-5A3.79,3.79,0,0,1,438.82,141.88Z"></path><path class="cls-10" d="M435.35,144.6a4.29,4.29,0,0,1-3.91-6.08,4.33,4.33,0,0,1,2.41-2.25,4.31,4.31,0,0,1,5.43,5.81h0A4.3,4.3,0,0,1,435.35,144.6Zm0-7.6a3.35,3.35,0,0,0-1.16.21,3.28,3.28,0,0,0-1.85,1.73,3.31,3.31,0,0,0,6,2.73h0a3.31,3.31,0,0,0-3-4.67Zm3.46,4.88h0Z"></path><path class="cls-3" d="M453.37,141.46a3.81,3.81,0,1,1-1.89-5A3.81,3.81,0,0,1,453.37,141.46Z"></path><path class="cls-10" d="M449.9,144.19a4.29,4.29,0,0,1-1.77-.39,4.29,4.29,0,1,1,5.69-2.13A4.31,4.31,0,0,1,449.9,144.19Zm0-7.61a3.3,3.3,0,0,0-3,1.94,3.29,3.29,0,1,0,3-1.94Z"></path><path class="cls-3" d="M467.56,141.05a3.8,3.8,0,1,1-1.88-5A3.8,3.8,0,0,1,467.56,141.05Z"></path><path class="cls-10" d="M464.1,143.78a4.3,4.3,0,0,1-3.91-6.08,4.3,4.3,0,0,1,7.83,3.56h0a4.29,4.29,0,0,1-2.41,2.25A4.37,4.37,0,0,1,464.1,143.78Zm0-7.6a3.3,3.3,0,0,0-3,1.93,3.3,3.3,0,0,0,6,2.74h0a3.3,3.3,0,0,0-1.64-4.38A3.3,3.3,0,0,0,464.11,136.18Z"></path></g><path class="cls-15" d="M396.7,184.11l-2.58,0a11.73,11.73,0,0,1-11.82-11.62l-.11-13.09a11.73,11.73,0,0,1,11.63-11.82l24.44-.2a13.56,13.56,0,0,0-1.92-.15l-25.38.21a12.09,12.09,0,0,0-12,12.18l.12,13.49c.05,6.68,5.51,12.92,12.18,12.86l3.1,0,9.94,9.33,9.32-9.52h0l-7.49,7.61Z"></path><path class="cls-16" d="M430.25,159a11.72,11.72,0,0,0-11.82-11.62h-.17l-24.44.2a11.73,11.73,0,0,0-11.63,11.82l.11,13.09a11.73,11.73,0,0,0,11.82,11.62l2.58,0,9.44,9.28,7.49-7.61,1.8-1.83,3.31,0a11.73,11.73,0,0,0,11.62-11.82Z"></path><path class="cls-10" d="M406.1,178.15a.44.44,0,0,1-.28-.14c-2.61-2.14-5.16-4.46-7.62-6.7l-.46-.41c-2.12-1.93-4.53-4.59-4.3-8a6.65,6.65,0,0,1,6.68-6.27h0a6.9,6.9,0,0,1,6,3.49,6.87,6.87,0,0,1,6-3.48h0a6.94,6.94,0,0,1,6.34,4.24,6.32,6.32,0,0,1,.5,2.66c-.09,3.25-2.5,5.72-4.76,7.78l-.33.31C407.81,177.12,406.58,178.15,406.1,178.15Zm-6-20.55a5.59,5.59,0,0,0-5.68,5.33c-.21,3,2,5.45,4,7.23l.46.41c2.37,2.16,4.82,4.39,7.33,6.46.54-.41,2.18-1.79,6.92-6.17l.34-.31c2.2-2,4.35-4.21,4.43-7.07h0a5.35,5.35,0,0,0-.42-2.25,5.94,5.94,0,0,0-5.42-3.62h0a5.9,5.9,0,0,0-5.49,3.84l-.47,1.26-.46-1.27a5.91,5.91,0,0,0-5.49-3.84Z"></path><path class="cls-17" d="M438.11,223.2l-3.21,0a14.55,14.55,0,0,1-14.66-14.42l-.13-16.23a14.55,14.55,0,0,1,14.42-14.67l30.32-.25a15.6,15.6,0,0,0-2.38-.18l-31.49.26a15,15,0,0,0-14.86,15.11l.13,16.73c.07,8.28,6.84,16,15.12,16l3.84,0,12.34,11.58,11.56-11.81h0l-9.29,9.44Z"></path><path class="cls-1" d="M479.73,192.08a14.54,14.54,0,0,0-14.66-14.42h-.22l-30.32.25a14.55,14.55,0,0,0-14.42,14.67l.13,16.23a14.55,14.55,0,0,0,14.66,14.42l3.21,0,11.71,11.52,9.29-9.44,2.23-2.27,4.11,0a14.54,14.54,0,0,0,14.42-14.66Z"></path><path class="cls-10" d="M471.32,193.67H430.14a.5.5,0,0,1-.5-.5.5.5,0,0,1,.5-.5h41.18a.5.5,0,0,1,.5.5A.51.51,0,0,1,471.32,193.67Z"></path><path class="cls-10" d="M471.32,209.37H430.14a.5.5,0,0,1-.5-.5.5.5,0,0,1,.5-.5h41.18a.51.51,0,0,1,.5.5A.5.5,0,0,1,471.32,209.37Z"></path><path class="cls-10" d="M450,201.61H430.14a.5.5,0,0,1,0-1H450a.5.5,0,0,1,0,1Z"></path><path class="cls-10" d="M471.32,201.61h-16a.5.5,0,0,1,0-1h16a.5.5,0,1,1,0,1Z"></path><g class="cls-18"><path class="cls-10" d="M250,135l-6,.05a27.15,27.15,0,0,1-27.38-26.93l-.25-30.32A27.16,27.16,0,0,1,243.3,50.36l56.81-.47a28.28,28.28,0,0,0-4.63-.35l-58.8.49a28,28,0,0,0-27.77,28.23l.26,31.26c.12,15.46,12.76,29.93,28.23,29.8l7.18,0,23,21.62,21.6-22.06h0l-17.35,17.64Z"></path><path class="cls-3" d="M267.63,161.58l-23.25-21.81-7,0h-.2c-15.09,0-28.4-14.1-28.53-30.3l-.26-31.25a28.49,28.49,0,0,1,28.26-28.74L295.48,49a29.08,29.08,0,0,1,4.71.36l-.08,1-56.81.47a26.67,26.67,0,0,0-26.43,26.88l.25,30.32a26.69,26.69,0,0,0,26.65,26.44H244l6.19-.05,21.67,21.31,17-17.28.72.7Zm-22.85-22.81,22.82,21.42,3.59-3.67-21.41-21.07-5.77.05h-.24a27.69,27.69,0,0,1-27.65-27.43l-.25-30.32a27.71,27.71,0,0,1,21.59-27.23h-.78a27.5,27.5,0,0,0-27.27,27.73l.26,31.25c.13,15.67,13,29.31,27.53,29.31h.19Z"></path><path class="cls-10" d="M327.73,76.82a27.15,27.15,0,0,0-27.38-26.93h-.24l-56.81.47a27.16,27.16,0,0,0-26.93,27.39l.25,30.32A27.15,27.15,0,0,0,244,135l6-.05,21.88,21.52,17.35-17.64,4.17-4.24,7.67-.06A27.16,27.16,0,0,0,328,107.14Z"></path><path class="cls-3" d="M271.87,157.18l-22.09-21.73-5.77.05h-.24a27.69,27.69,0,0,1-27.65-27.43l-.25-30.32A27.67,27.67,0,0,1,243.3,49.86l57-.47a27.66,27.66,0,0,1,27.89,27.43l.25,30.32A27.69,27.69,0,0,1,301.05,135l-7.46.06Zm-21.68-22.73,21.67,21.31,21.31-21.67L301,134a26.69,26.69,0,0,0,26.44-26.88l-.25-30.32a26.65,26.65,0,0,0-26.88-26.44l-57.05.47a26.67,26.67,0,0,0-26.43,26.88l.25,30.32a26.69,26.69,0,0,0,26.65,26.44H244Z"></path><path class="cls-10" d="M251.32,97.33a7.1,7.1,0,1,1-3.53-9.4A7.12,7.12,0,0,1,251.32,97.33Z"></path><path class="cls-3" d="M244.84,102a7.41,7.41,0,0,1-3.13-.69,7.57,7.57,0,1,1,3.13.69Zm0-14.21a6.6,6.6,0,1,0,2.31,12.78,6.6,6.6,0,0,0-2.31-12.78Z"></path><circle class="cls-10" cx="272.02" cy="93.62" r="7.1" transform="matrix(0.25, -0.97, 0.97, 0.25, 113.2, 333.48)"></circle><path class="cls-3" d="M272,101.22a7.6,7.6,0,0,1-6.92-10.75A7.59,7.59,0,1,1,272,101.22ZM272,87a6.61,6.61,0,1,0,6,9.34h0a6.55,6.55,0,0,0,.17-5,6.48,6.48,0,0,0-3.45-3.69A6.4,6.4,0,0,0,272,87Z"></path><path class="cls-10" d="M305,95.8a7.1,7.1,0,1,1-3.53-9.41A7.1,7.1,0,0,1,305,95.8Z"></path><path class="cls-3" d="M298.53,100.46A7.6,7.6,0,1,1,305.46,96h0A7.61,7.61,0,0,1,298.53,100.46Zm0-14.2a6.6,6.6,0,1,0,6,9.33h0a6.6,6.6,0,0,0-6-9.33ZM305,95.8h0Z"></path><path class="cls-10" d="M322.1,142.89l-3,0a13.67,13.67,0,0,1-13.78-13.57l-.13-15.26a13.68,13.68,0,0,1,13.56-13.79l28.51-.23a13.73,13.73,0,0,0-2.24-.18l-29.6.25a14.1,14.1,0,0,0-14,14.21l.14,15.74c.06,7.78,6.42,15.06,14.21,15l3.62,0L331,156l10.87-11.1h0l-8.73,8.88Z"></path><path class="cls-3" d="M331,156.65l-11.81-11.08-3.42,0a13.87,13.87,0,0,1-10.37-4.72,16.28,16.28,0,0,1-4.34-10.78l-.14-15.74A14.61,14.61,0,0,1,315.4,99.64L345,99.39a14,14,0,0,1,2.32.18l-.07,1-28.52.23a13.18,13.18,0,0,0-13.06,13.29l.13,15.26a13.18,13.18,0,0,0,13.28,13.07l3.22,0L333.11,153l8.39-8.52.71.7h0Zm-11.42-12.09L331,155.25l1.46-1.5L321.9,143.39l-2.8,0H319a14.17,14.17,0,0,1-14.17-14.06l-.13-15.27a14.23,14.23,0,0,1,9.05-13.34,13.64,13.64,0,0,0-11.81,13.6l.14,15.73a15.3,15.3,0,0,0,4.07,10.11,12.86,12.86,0,0,0,9.63,4.4Z"></path><path class="cls-10" d="M361.25,113.63a13.68,13.68,0,0,0-13.79-13.57h-.21l-28.51.23a13.68,13.68,0,0,0-13.56,13.79l.13,15.26a13.67,13.67,0,0,0,13.78,13.57l3,0,11,10.84,8.73-8.88,2.11-2.14,3.86,0a13.68,13.68,0,0,0,13.56-13.79Z"></path><path class="cls-3" d="M333.13,154.43l-11.23-11-2.8,0a14.17,14.17,0,0,1-14.29-14.06l-.13-15.27A14.19,14.19,0,0,1,318.74,99.8l28.72-.24a14,14,0,0,1,10.06,4.07,14.13,14.13,0,0,1,4.23,10h0l.13,15.27a14.19,14.19,0,0,1-14.06,14.29l-3.65,0Zm-10.82-12L333.11,153l10.63-10.81,4.07,0a13.18,13.18,0,0,0,13.07-13.29l-.13-15.26a13.2,13.2,0,0,0-13.17-13.07h-.11l-28.73.24a13.18,13.18,0,0,0-13.06,13.29l.13,15.26a13.18,13.18,0,0,0,13.28,13.07Z"></path><path class="cls-10" d="M333,136.21a16.59,16.59,0,0,1-5.25-.82,11.6,11.6,0,0,1-4.27-2.48,11.72,11.72,0,0,1-2.84-4.23,16,16,0,0,1-1-6.08,16.92,16.92,0,0,1,1-6.08,12.1,12.1,0,0,1,2.9-4.47,12.43,12.43,0,0,1,4.5-2.76,17.16,17.16,0,0,1,5.84-1,16.83,16.83,0,0,1,5.75.88,10.93,10.93,0,0,1,4.06,2.52,10.21,10.21,0,0,1,2.41,4,16.53,16.53,0,0,1,.8,5.3,10.67,10.67,0,0,1-1.73,6.47,5.93,5.93,0,0,1-5.11,2.33,4.2,4.2,0,0,1-1.57-.26,3.54,3.54,0,0,1-1.14-.67,2.92,2.92,0,0,1-.71-.92,3.46,3.46,0,0,1-.31-1h-.14a5.71,5.71,0,0,1-2.34,2,7.06,7.06,0,0,1-3,.67,4.2,4.2,0,0,1-3.59-1.68,7.29,7.29,0,0,1-1.24-4.47,10.53,10.53,0,0,1,.58-3.57,8.34,8.34,0,0,1,1.68-2.83,7.32,7.32,0,0,1,2.66-1.85,8.91,8.91,0,0,1,3.5-.66,11.93,11.93,0,0,1,2.71.35c.59.14,1.2.32,1.81.53a1.52,1.52,0,0,1,1,1.71l-1.11,5.84c0,.3-.09.6-.14.91a5.69,5.69,0,0,0-.07.89,2.14,2.14,0,0,0,.36,1.29,1.52,1.52,0,0,0,1.3.5,2.26,2.26,0,0,0,2-1.48,9.25,9.25,0,0,0,.75-4.11,9.44,9.44,0,0,0-2.25-6.7q-2.25-2.41-6.94-2.42a12.4,12.4,0,0,0-4.28.71,8.91,8.91,0,0,0-3.3,2.07,9.34,9.34,0,0,0-2.11,3.35,13,13,0,0,0-.74,4.54,12.48,12.48,0,0,0,.74,4.52,8.76,8.76,0,0,0,2,3.15,8.12,8.12,0,0,0,3,1.83,11.69,11.69,0,0,0,3.75.58,16.18,16.18,0,0,0,3.16-.36c.76-.15,1.55-.34,2.37-.56a1.52,1.52,0,0,1,1.83,1l.16.49a1.51,1.51,0,0,1-1,1.93c-.95.26-1.87.48-2.75.65A20.13,20.13,0,0,1,333,136.21Zm-1.28-9.78a3.3,3.3,0,0,0,2.26-1,5.19,5.19,0,0,0,1.43-3l.52-2.92a1.49,1.49,0,0,0-1.43-1.77h0a4.18,4.18,0,0,0-1.9.43,4.41,4.41,0,0,0-1.48,1.21,5.51,5.51,0,0,0-1,1.83,7.28,7.28,0,0,0-.34,2.29,4.27,4.27,0,0,0,.44,2.09A1.57,1.57,0,0,0,331.76,126.43Z"></path><path class="cls-3" d="M333,136.71a17.36,17.36,0,0,1-5.41-.84,12.16,12.16,0,0,1-4.45-2.59,12.39,12.39,0,0,1-3-4.41,16.79,16.79,0,0,1-1.07-6.27,17.48,17.48,0,0,1,1.05-6.26,12.74,12.74,0,0,1,3-4.65,13.05,13.05,0,0,1,4.68-2.87,19.3,19.3,0,0,1,11.93-.07,11.36,11.36,0,0,1,4.24,2.64,10.77,10.77,0,0,1,2.54,4.2,17.29,17.29,0,0,1,.82,5.46,11.22,11.22,0,0,1-1.83,6.77,6.45,6.45,0,0,1-5.51,2.53,4.94,4.94,0,0,1-1.75-.29,4,4,0,0,1-1.29-.77,3.48,3.48,0,0,1-.83-1.07c0-.09-.08-.17-.11-.26a6.23,6.23,0,0,1-2,1.5,7.56,7.56,0,0,1-3.22.72,4.68,4.68,0,0,1-4-1.88,7.84,7.84,0,0,1-1.34-4.77,11,11,0,0,1,.61-3.74,8.92,8.92,0,0,1,1.78-3,7.92,7.92,0,0,1,2.83-2,10.31,10.31,0,0,1,6.53-.34c.6.15,1.23.33,1.85.55a2,2,0,0,1,1.31,2.28L339.19,124a5.73,5.73,0,0,0-.06.81,1.69,1.69,0,0,0,.27,1,1.07,1.07,0,0,0,.89.29,1.8,1.8,0,0,0,1.61-1.21,10.83,10.83,0,0,0-1.43-10.24c-1.39-1.5-3.6-2.26-6.57-2.26a11.93,11.93,0,0,0-4.11.68,8.56,8.56,0,0,0-3.12,2,8.87,8.87,0,0,0-2,3.18,12.46,12.46,0,0,0-.71,4.36,12,12,0,0,0,.71,4.34,8.29,8.29,0,0,0,1.92,3,7.45,7.45,0,0,0,2.85,1.71,11.3,11.3,0,0,0,3.59.56,15.18,15.18,0,0,0,3.06-.35c.74-.15,1.53-.34,2.34-.55a2,2,0,0,1,2.43,1.31l.16.48a2,2,0,0,1-.14,1.59,2,2,0,0,1-1.24,1c-1,.26-1.9.48-2.79.65A20.17,20.17,0,0,1,333,136.71Zm.86-27.87a16.69,16.69,0,0,0-5.67.92,12.17,12.17,0,0,0-4.32,2.65,11.69,11.69,0,0,0-2.79,4.29,16.59,16.59,0,0,0-1,5.9,15.78,15.78,0,0,0,1,5.89,11.08,11.08,0,0,0,2.72,4,11.22,11.22,0,0,0,4.09,2.38,16.2,16.2,0,0,0,5.09.79,19.82,19.82,0,0,0,3.63-.39c.87-.17,1.78-.39,2.72-.64a1,1,0,0,0,.62-.49,1,1,0,0,0,.07-.8l-.16-.49a1,1,0,0,0-1.22-.66c-.83.22-1.64.42-2.4.57a16.43,16.43,0,0,1-3.26.37,12.14,12.14,0,0,1-3.91-.61,8.53,8.53,0,0,1-3.22-1.94,9.19,9.19,0,0,1-2.16-3.32,12.87,12.87,0,0,1-.78-4.71,13.35,13.35,0,0,1,.78-4.72,9.57,9.57,0,0,1,2.22-3.52,9.26,9.26,0,0,1,3.48-2.19,12.9,12.9,0,0,1,4.45-.74c3.26,0,5.72.87,7.31,2.58a10,10,0,0,1,2.38,7,9.81,9.81,0,0,1-.8,4.33,2.73,2.73,0,0,1-2.5,1.76,2,2,0,0,1-1.7-.71,2.59,2.59,0,0,1-.46-1.58,8,8,0,0,1,.07-1l.14-.92,1.12-5.85a1,1,0,0,0-.66-1.15,15.56,15.56,0,0,0-1.75-.51,9.31,9.31,0,0,0-5.91.28,7,7,0,0,0-2.48,1.73,7.77,7.77,0,0,0-1.58,2.66,10.06,10.06,0,0,0-.55,3.4,6.91,6.91,0,0,0,1.14,4.18,3.7,3.7,0,0,0,3.19,1.47,6.57,6.57,0,0,0,2.8-.63,5.14,5.14,0,0,0,2.14-1.84l.15-.22h.84l.06.43a2.88,2.88,0,0,0,.26.87,2.57,2.57,0,0,0,.59.76,3.4,3.4,0,0,0,1,.58,3.9,3.9,0,0,0,1.39.22,5.42,5.42,0,0,0,4.71-2.13,10.24,10.24,0,0,0,1.63-6.17,16.18,16.18,0,0,0-.77-5.14,9.83,9.83,0,0,0-2.3-3.82,10.38,10.38,0,0,0-3.87-2.4A16.62,16.62,0,0,0,333.9,108.84Zm-2.14,18.09a2.05,2.05,0,0,1-1.92-1.07,4.76,4.76,0,0,1-.51-2.33,7.72,7.72,0,0,1,.37-2.45,6.3,6.3,0,0,1,1.05-2,5,5,0,0,1,1.65-1.34,4.71,4.71,0,0,1,2.12-.48,1.92,1.92,0,0,1,1.5.7,2,2,0,0,1,.45,1.66l-.52,2.92a5.8,5.8,0,0,1-1.59,3.31A3.86,3.86,0,0,1,331.76,126.93Zm2.78-8.66a3.59,3.59,0,0,0-1.69.38,3.78,3.78,0,0,0-1.32,1.07,5.21,5.21,0,0,0-.88,1.67,6.67,6.67,0,0,0-.32,2.14,3.89,3.89,0,0,0,.38,1.85,1.07,1.07,0,0,0,1.05.55,2.81,2.81,0,0,0,1.93-.82,4.75,4.75,0,0,0,1.27-2.74l.52-2.91a1,1,0,0,0-.22-.85A.93.93,0,0,0,334.54,118.27Z"></path></g><path class="cls-17" d="M211.07,155.17l-6,.05a27.18,27.18,0,0,1-27.39-26.94L177.45,98a27.16,27.16,0,0,1,26.94-27.38l56.8-.47a28.15,28.15,0,0,0-4.62-.35l-58.81.49A28,28,0,0,0,170,98.48l.26,31.25c.13,15.47,12.77,29.93,28.23,29.81l7.19,0,23,21.61,21.59-22h0L233,176.69Z"></path><path class="cls-1" d="M288.82,97a27.16,27.16,0,0,0-27.39-26.93h-.24l-56.8.47A27.16,27.16,0,0,0,177.45,98l.25,30.32a27.18,27.18,0,0,0,27.39,26.94l6-.05L233,176.69l17.34-17.64,4.18-4.24,7.66-.07a27.16,27.16,0,0,0,26.94-27.38Z"></path><path class="cls-10" d="M205.93,122.22a7.51,7.51,0,0,1-3.14-.69,7.6,7.6,0,1,1,5.82.2A7.79,7.79,0,0,1,205.93,122.22Zm0-14.22a6.66,6.66,0,0,0-2.32.43,6.6,6.6,0,1,0,8.33,8.91h0a6.62,6.62,0,0,0-6-9.34Z"></path><path class="cls-10" d="M233.1,121.43a7.47,7.47,0,0,1-3.14-.68A7.6,7.6,0,1,1,240,117h0A7.6,7.6,0,0,1,233.1,121.43Zm0-14.2a6.65,6.65,0,0,0-2.32.42,6.6,6.6,0,1,0,5.05.17A6.68,6.68,0,0,0,233.11,107.23Z"></path><path class="cls-10" d="M259.62,120.68a7.63,7.63,0,1,1,2.68-.49A7.51,7.51,0,0,1,259.62,120.68Zm0-14.21a6.65,6.65,0,0,0-2.32.42,6.6,6.6,0,1,0,8.33,8.91h0a6.6,6.6,0,0,0-3.28-8.74A6.68,6.68,0,0,0,259.63,106.47Z"></path><path class="cls-19" d="M283.19,163.11l-3,0a13.68,13.68,0,0,1-13.79-13.56l-.13-15.26a13.67,13.67,0,0,1,13.57-13.79l28.51-.24a13.82,13.82,0,0,0-2.24-.17l-29.61.24a14.1,14.1,0,0,0-14,14.22l.13,15.73c.06,7.79,6.43,15.07,14.21,15l3.62,0,11.6,10.88,10.85-11.08-8.71,8.86Z"></path><path class="cls-13" d="M322.33,133.84a13.67,13.67,0,0,0-13.78-13.56h-.21l-28.51.24a13.67,13.67,0,0,0-13.57,13.79l.13,15.26a13.68,13.68,0,0,0,13.79,13.56l3,0,11,10.83,8.71-8.86,2.12-2.15,3.86,0a13.67,13.67,0,0,0,13.56-13.78Z"></path><path class="cls-10" d="M294.12,156.42a16.68,16.68,0,0,1-5.25-.81,11.27,11.27,0,0,1-7.11-6.72,16.09,16.09,0,0,1-1-6.07,16.88,16.88,0,0,1,1-6.08,12.23,12.23,0,0,1,2.9-4.47,12.56,12.56,0,0,1,4.51-2.76,18.78,18.78,0,0,1,11.58-.07,10.53,10.53,0,0,1,4.06,2.52,10.26,10.26,0,0,1,2.42,4,16.62,16.62,0,0,1,.79,5.3,10.71,10.71,0,0,1-1.72,6.48,6,6,0,0,1-5.11,2.33,4.47,4.47,0,0,1-1.58-.26,3.8,3.8,0,0,1-1.13-.67,2.78,2.78,0,0,1-.71-.92,3.16,3.16,0,0,1-.31-1h-.14a5.6,5.6,0,0,1-2.35,2,7.06,7.06,0,0,1-3,.68,4.21,4.21,0,0,1-3.6-1.68,7.38,7.38,0,0,1-1.24-4.47,10.53,10.53,0,0,1,.59-3.57,8.37,8.37,0,0,1,1.67-2.84A7.38,7.38,0,0,1,292,135.5a9,9,0,0,1,3.51-.66,11.93,11.93,0,0,1,2.71.35,16.52,16.52,0,0,1,1.8.53,1.5,1.5,0,0,1,1,1.71l-1.11,5.84c0,.3-.09.6-.14.91a7,7,0,0,0-.06.88,2.19,2.19,0,0,0,.36,1.3,1.5,1.5,0,0,0,1.29.5,2.28,2.28,0,0,0,2.06-1.49,9.41,9.41,0,0,0,.74-4.11,9.52,9.52,0,0,0-2.24-6.7q-2.25-2.42-6.95-2.41a12.2,12.2,0,0,0-4.28.71,8.91,8.91,0,0,0-3.3,2.07,9.24,9.24,0,0,0-2.1,3.35,12.75,12.75,0,0,0-.74,4.54,12.3,12.3,0,0,0,.74,4.52,8.47,8.47,0,0,0,2,3.14,8,8,0,0,0,3,1.83,11.78,11.78,0,0,0,3.75.59,16.1,16.1,0,0,0,3.16-.36c.77-.16,1.56-.35,2.37-.56a1.51,1.51,0,0,1,1.83,1l.16.49a1.51,1.51,0,0,1-1,1.93c-.94.26-1.86.47-2.75.64A19.23,19.23,0,0,1,294.12,156.42Zm-1.28-9.77a3.37,3.37,0,0,0,2.27-1,5.25,5.25,0,0,0,1.43-3l.52-2.92a1.51,1.51,0,0,0-1.44-1.78h0a4.28,4.28,0,0,0-1.9.43,4.57,4.57,0,0,0-1.49,1.21,5.9,5.9,0,0,0-1,1.83,7.11,7.11,0,0,0-.35,2.3,4.29,4.29,0,0,0,.45,2.09A1.56,1.56,0,0,0,292.84,146.65Z"></path></svg>