<svg xmlns="http://www.w3.org/2000/svg" id="Layer_17" data-name="Layer 17" viewBox="0 0 700 500"><defs><style>.cls-1{fill:#ececec;}.cls-2,.cls-3,.cls-5{fill:#f0f0f0;}.cls-26,.cls-3,.cls-30,.cls-33{opacity:0.2;}.cls-4{fill:#e1e1e1;}.cls-35,.cls-37,.cls-5{opacity:0.5;}.cls-26,.cls-27,.cls-28,.cls-31,.cls-36,.cls-37,.cls-38,.cls-39,.cls-6{fill:#fff;}.cls-7{fill:#fafafa;}.cls-8{fill:#e7e7e7;}.cls-9{fill:#f5f5f5;}.cls-10,.cls-14,.cls-19{fill:none;}.cls-11{fill:#b0b0b0;}.cls-12{fill:#cacaca;}.cls-13{fill:#1a1a1a;}.cls-14{stroke:#b0b0b0;}.cls-14,.cls-19{stroke-miterlimit:10;}.cls-15{fill:#eb1c24;}.cls-16{fill:#333;}.cls-17{fill:#e4e4e4;}.cls-18{fill:#979797;}.cls-19{stroke:gray;stroke-width:0.25px;}.cls-20{fill:#4d4d4d;}.cls-21{fill:#666;}.cls-22{fill:#f9ae3b;}.cls-23{fill:#1a2e35;}.cls-24{fill:#007cff;}.cls-25,.cls-28,.cls-31{opacity:0.1;}.cls-27{opacity:0.4;}.cls-28,.cls-33,.cls-35{isolation:isolate;}.cls-29,.cls-39{opacity:0.3;}.cls-32{fill:#ff8b7b;}.cls-34{fill:#ba221f;}.cls-36{opacity:0.7;}.cls-38{opacity:0.6;}</style></defs><title> Speed Monitoring </title><rect class="cls-1" x="516.78" y="404.97" width="33.12" height="0.25"></rect><rect class="cls-1" x="422.53" y="409.69" width="8.69" height="0.25"></rect><rect class="cls-1" x="496.59" y="395.69" width="19.19" height="0.25"></rect><rect class="cls-1" x="152.46" y="397.37" width="43.19" height="0.25"></rect><rect class="cls-1" x="204.56" y="397.37" width="6.33" height="0.25"></rect><rect class="cls-1" x="231.47" y="401.59" width="93.68" height="0.25"></rect><path class="cls-1" d="M337,344.28H143.91a5.71,5.71,0,0,1-5.7-5.71V67.14a5.71,5.71,0,0,1,5.7-5.71H337a5.71,5.71,0,0,1,5.71,5.71V338.57A5.71,5.71,0,0,1,337,344.28ZM143.91,61.68a5.46,5.46,0,0,0-5.45,5.46V338.57a5.46,5.46,0,0,0,5.45,5.46H337a5.47,5.47,0,0,0,5.46-5.46V67.14A5.47,5.47,0,0,0,337,61.68Z"></path><path class="cls-1" d="M553.31,344.28H360.21a5.72,5.72,0,0,1-5.71-5.71V67.14a5.72,5.72,0,0,1,5.71-5.71h193.1A5.71,5.71,0,0,1,559,67.14V338.57A5.71,5.71,0,0,1,553.31,344.28ZM360.21,61.68a5.47,5.47,0,0,0-5.46,5.46V338.57a5.47,5.47,0,0,0,5.46,5.46h193.1a5.47,5.47,0,0,0,5.46-5.46V67.14a5.47,5.47,0,0,0-5.46-5.46Z"></path><rect class="cls-1" x="100" y="388.88" width="500" height="0.25"></rect><polygon class="cls-2" points="170.63 188.72 170.52 189.99 284.33 189.99 284.44 188.72 170.63 188.72"></polygon><polygon class="cls-3" points="284.44 188.72 170.63 188.72 170.52 189.99 284.33 189.99 284.44 188.72"></polygon><polygon class="cls-1" points="285.71 174.25 172.04 174.25 178.91 95.74 292.58 95.74 285.71 174.25"></polygon><path class="cls-4" d="M175.16,205.2h0a5.24,5.24,0,0,1-5.31-5.83h0a6.48,6.48,0,0,1,6.33-5.82h0a5.25,5.25,0,0,1,5.31,5.82h0A6.48,6.48,0,0,1,175.16,205.2Z"></path><polygon class="cls-1" points="228.03 183.9 171.2 183.9 171.64 178.88 228.47 178.88 228.03 183.9"></polygon><polygon class="cls-4" points="283.22 201.88 261.26 201.88 261.7 196.87 283.66 196.87 283.22 201.88"></polygon><polygon class="cls-1" points="284.86 183.9 279.84 183.9 280.28 178.88 285.3 178.88 284.86 183.9"></polygon><polygon class="cls-1" points="276.36 183.9 271.34 183.9 271.78 178.88 276.8 178.88 276.36 183.9"></polygon><polygon class="cls-1" points="267.85 183.9 262.83 183.9 263.27 178.88 268.29 178.88 267.85 183.9"></polygon><polygon class="cls-5" points="293 90.91 207.75 90.91 208.13 86.58 293.38 86.58 293 90.91"></polygon><polygon class="cls-1" points="201.02 91.26 179.06 91.26 179.5 86.24 201.46 86.24 201.02 91.26"></polygon><polygon class="cls-4" points="277.19 168.55 185.86 170.06 186.06 167.71 281.42 167.71 277.19 168.55"></polygon><polygon class="cls-6" points="272.24 170.06 176.41 170.06 176.61 167.71 272.45 167.71 272.24 170.06"></polygon><path class="cls-4" d="M282.45,170.93H176.07l.36-4.14H282.81Zm-105.86-.47H282l.28-3.19H176.86Z"></path><polygon class="cls-7" points="518.75 314.89 368.45 314.89 369.49 304.71 519.79 304.71 518.75 314.89"></polygon><polygon class="cls-2" points="494.13 314.89 353.56 314.89 354.6 304.71 495.17 304.71 494.13 314.89"></polygon><path class="cls-8" d="M520.43,318.67H352.76l1.83-17.93H522.25Zm-166.71-2.06H519.89l1.4-13.81H355.13Z"></path><polygon class="cls-8" points="359.15 313.89 354.91 313.89 355.77 305.71 360.01 305.71 359.15 313.89"></polygon><polygon class="cls-8" points="364.31 313.89 360.07 313.89 360.93 305.71 365.17 305.71 364.31 313.89"></polygon><polygon class="cls-8" points="369.47 313.89 365.23 313.89 366.09 305.71 370.33 305.71 369.47 313.89"></polygon><polygon class="cls-8" points="374.63 313.89 370.39 313.89 371.25 305.71 375.49 305.71 374.63 313.89"></polygon><polygon class="cls-8" points="379.79 313.89 375.55 313.89 376.41 305.71 380.65 305.71 379.79 313.89"></polygon><polygon class="cls-8" points="384.95 313.89 380.71 313.89 381.57 305.71 385.81 305.71 384.95 313.89"></polygon><polygon class="cls-8" points="390.11 313.89 385.87 313.89 386.73 305.71 390.97 305.71 390.11 313.89"></polygon><polygon class="cls-8" points="395.27 313.89 391.03 313.89 391.89 305.71 396.13 305.71 395.27 313.89"></polygon><polygon class="cls-8" points="400.43 313.89 396.19 313.89 397.05 305.71 401.29 305.71 400.43 313.89"></polygon><polygon class="cls-8" points="405.59 313.89 401.35 313.89 402.21 305.71 406.44 305.71 405.59 313.89"></polygon><polygon class="cls-8" points="410.75 313.89 406.51 313.89 407.37 305.71 411.61 305.71 410.75 313.89"></polygon><polygon class="cls-8" points="415.9 313.89 411.67 313.89 412.53 305.71 416.76 305.71 415.9 313.89"></polygon><polygon class="cls-8" points="421.06 313.89 416.83 313.89 417.69 305.71 421.92 305.71 421.06 313.89"></polygon><polygon class="cls-8" points="426.22 313.89 421.99 313.89 422.85 305.71 427.08 305.71 426.22 313.89"></polygon><polygon class="cls-8" points="431.38 313.89 427.15 313.89 428.01 305.71 432.24 305.71 431.38 313.89"></polygon><polygon class="cls-8" points="436.54 313.89 432.31 313.89 433.17 305.71 437.4 305.71 436.54 313.89"></polygon><polygon class="cls-8" points="441.7 313.89 437.47 313.89 438.33 305.71 442.56 305.71 441.7 313.89"></polygon><polygon class="cls-8" points="446.86 313.89 442.63 313.89 443.49 305.71 447.72 305.71 446.86 313.89"></polygon><polygon class="cls-8" points="452.02 313.89 447.79 313.89 448.64 305.71 452.88 305.71 452.02 313.89"></polygon><polygon class="cls-8" points="457.18 313.89 452.95 313.89 453.81 305.71 458.04 305.71 457.18 313.89"></polygon><polygon class="cls-8" points="462.34 313.89 458.11 313.89 458.96 305.71 463.2 305.71 462.34 313.89"></polygon><polygon class="cls-8" points="467.5 313.89 463.26 313.89 464.12 305.71 468.36 305.71 467.5 313.89"></polygon><polygon class="cls-8" points="472.66 313.89 468.43 313.89 469.28 305.71 473.52 305.71 472.66 313.89"></polygon><polygon class="cls-8" points="477.82 313.89 473.58 313.89 474.44 305.71 478.68 305.71 477.82 313.89"></polygon><polygon class="cls-8" points="482.98 313.89 478.74 313.89 479.6 305.71 483.84 305.71 482.98 313.89"></polygon><polygon class="cls-8" points="488.14 313.89 483.9 313.89 484.76 305.71 489 305.71 488.14 313.89"></polygon><polygon class="cls-8" points="493.3 313.89 489.06 313.89 489.92 305.71 494.16 305.71 493.3 313.89"></polygon><polygon class="cls-8" points="541.03 318.34 524.72 318.34 526.14 302.03 530.8 302.03 530.68 303.41 527.41 303.41 526.23 316.95 539.76 316.95 540.95 303.41 537.61 303.41 537.73 302.03 542.46 302.03 541.03 318.34"></polygon><polygon class="cls-8" points="534.28 310.18 532.89 310.18 534.26 294.59 535.64 294.59 534.28 310.18"></polygon><polygon class="cls-8" points="538.95 297.95 534.86 295.38 530.16 297.71 529.63 296.48 535.04 293.8 539.76 296.76 538.95 297.95"></polygon><polygon class="cls-7" points="531.73 269.45 381.43 269.45 382.46 259.26 532.76 259.26 531.73 269.45"></polygon><polygon class="cls-2" points="517.58 269.45 366.53 269.45 367.57 259.26 518.62 259.26 517.58 269.45"></polygon><path class="cls-8" d="M533.4,273.22H365.73l1.83-17.92H535.22Zm-166.71-2.06H532.86l1.4-13.8H368.1Z"></path><polygon class="cls-8" points="372.12 268.45 367.89 268.45 368.75 260.26 372.98 260.26 372.12 268.45"></polygon><polygon class="cls-8" points="377.28 268.45 373.05 268.45 373.9 260.26 378.14 260.26 377.28 268.45"></polygon><polygon class="cls-8" points="382.44 268.45 378.2 268.45 379.06 260.26 383.3 260.26 382.44 268.45"></polygon><polygon class="cls-8" points="387.6 268.45 383.36 268.45 384.22 260.26 388.46 260.26 387.6 268.45"></polygon><polygon class="cls-8" points="392.76 268.45 388.52 268.45 389.38 260.26 393.62 260.26 392.76 268.45"></polygon><polygon class="cls-8" points="397.92 268.45 393.68 268.45 394.54 260.26 398.78 260.26 397.92 268.45"></polygon><polygon class="cls-8" points="403.08 268.45 398.84 268.45 399.7 260.26 403.94 260.26 403.08 268.45"></polygon><polygon class="cls-8" points="408.24 268.45 404 268.45 404.86 260.26 409.1 260.26 408.24 268.45"></polygon><polygon class="cls-8" points="413.4 268.45 409.16 268.45 410.02 260.26 414.26 260.26 413.4 268.45"></polygon><polygon class="cls-8" points="418.56 268.45 414.32 268.45 415.18 260.26 419.42 260.26 418.56 268.45"></polygon><polygon class="cls-8" points="423.72 268.45 419.48 268.45 420.34 260.26 424.58 260.26 423.72 268.45"></polygon><polygon class="cls-8" points="428.88 268.45 424.64 268.45 425.5 260.26 429.74 260.26 428.88 268.45"></polygon><polygon class="cls-8" points="434.04 268.45 429.8 268.45 430.66 260.26 434.9 260.26 434.04 268.45"></polygon><polygon class="cls-8" points="439.2 268.45 434.96 268.45 435.82 260.26 440.06 260.26 439.2 268.45"></polygon><polygon class="cls-8" points="444.36 268.45 440.12 268.45 440.98 260.26 445.21 260.26 444.36 268.45"></polygon><polygon class="cls-8" points="449.51 268.45 445.28 268.45 446.14 260.26 450.37 260.26 449.51 268.45"></polygon><polygon class="cls-8" points="454.68 268.45 450.44 268.45 451.3 260.26 455.53 260.26 454.68 268.45"></polygon><polygon class="cls-8" points="459.83 268.45 455.6 268.45 456.46 260.26 460.69 260.26 459.83 268.45"></polygon><polygon class="cls-8" points="464.99 268.45 460.76 268.45 461.62 260.26 465.85 260.26 464.99 268.45"></polygon><polygon class="cls-8" points="470.15 268.45 465.92 268.45 466.78 260.26 471.01 260.26 470.15 268.45"></polygon><polygon class="cls-8" points="475.31 268.45 471.08 268.45 471.94 260.26 476.17 260.26 475.31 268.45"></polygon><polygon class="cls-8" points="480.47 268.45 476.24 268.45 477.1 260.26 481.33 260.26 480.47 268.45"></polygon><polygon class="cls-8" points="485.63 268.45 481.4 268.45 482.25 260.26 486.49 260.26 485.63 268.45"></polygon><polygon class="cls-8" points="490.79 268.45 486.56 268.45 487.42 260.26 491.65 260.26 490.79 268.45"></polygon><polygon class="cls-8" points="495.95 268.45 491.72 268.45 492.57 260.26 496.81 260.26 495.95 268.45"></polygon><polygon class="cls-8" points="501.11 268.45 496.88 268.45 497.73 260.26 501.97 260.26 501.11 268.45"></polygon><polygon class="cls-8" points="506.27 268.45 502.04 268.45 502.89 260.26 507.13 260.26 506.27 268.45"></polygon><polygon class="cls-8" points="511.43 268.45 507.19 268.45 508.05 260.26 512.29 260.26 511.43 268.45"></polygon><polygon class="cls-8" points="516.59 268.45 512.35 268.45 513.21 260.26 517.45 260.26 516.59 268.45"></polygon><polygon class="cls-8" points="553.92 272.98 537.61 272.98 539.03 256.67 543.69 256.67 543.57 258.06 540.3 258.06 539.11 271.59 552.65 271.59 553.84 258.06 550.49 258.06 550.62 256.67 555.34 256.67 553.92 272.98"></polygon><polygon class="cls-8" points="547.19 264.83 545.8 264.83 547.17 249.24 548.55 249.24 547.19 264.83"></polygon><polygon class="cls-8" points="546.45 265.62 541.5 262.94 542.25 261.71 546.54 264.03 551.09 261.47 551.69 262.66 546.45 265.62"></polygon><ellipse id="_Path_" data-name="&lt;Path&gt;" class="cls-9" cx="350" cy="425.17" rx="193.89" ry="11.32"></ellipse><rect x="224.22" y="135.68" width="14.05" height="2.51" transform="translate(462.49 273.86) rotate(180)"></rect><rect x="202.78" y="135.12" width="13.12" height="3.07" transform="translate(418.67 273.3) rotate(180)"></rect><rect x="200.73" y="137.68" width="60.16" height="2.22" transform="translate(461.62 277.57) rotate(180)"></rect><path class="cls-10" d="M237.57,139.57a.12.12,0,0,0,.12-.13.12.12,0,0,0-.12-.12.12.12,0,0,0-.13.12A.13.13,0,0,0,237.57,139.57Z"></path><path class="cls-10" d="M237.31,139.94a.12.12,0,0,0,.05.18.13.13,0,0,0,.17-.05.13.13,0,0,0-.05-.17A.14.14,0,0,0,237.31,139.94Z"></path><path class="cls-10" d="M237.36,138.77a.11.11,0,0,0-.05.17.13.13,0,0,0,.17.05.14.14,0,0,0,.05-.18A.12.12,0,0,0,237.36,138.77Z"></path><path class="cls-10" d="M236.94,140.31a.14.14,0,0,0-.05.18.13.13,0,0,0,.17,0,.11.11,0,0,0,.05-.17A.13.13,0,0,0,236.94,140.31Z"></path><path class="cls-10" d="M237.11,138.53a.11.11,0,0,0-.05-.17.12.12,0,0,0-.17,0,.13.13,0,0,0,.05.17A.13.13,0,0,0,237.11,138.53Z"></path><path class="cls-10" d="M236.31,140.57a.13.13,0,0,0,.13.13.12.12,0,0,0,.12-.13.12.12,0,0,0-.12-.12A.13.13,0,0,0,236.31,140.57Z"></path><path class="cls-10" d="M236.56,138.31a.12.12,0,0,0-.12-.13.13.13,0,0,0,0,.26A.12.12,0,0,0,236.56,138.31Z"></path><path class="cls-10" d="M235.76,140.36a.13.13,0,0,0,.22.13.12.12,0,0,0,0-.18A.13.13,0,0,0,235.76,140.36Z"></path><path class="cls-10" d="M235.81,138.36a.13.13,0,0,0-.05.17.13.13,0,0,0,.17,0,.11.11,0,0,0,0-.17A.12.12,0,0,0,235.81,138.36Z"></path><path class="cls-10" d="M235.39,139.9a.12.12,0,0,0,0,.17.13.13,0,0,0,.17.05.14.14,0,0,0,0-.18A.15.15,0,0,0,235.39,139.9Z"></path><path class="cls-10" d="M235.57,138.94a.13.13,0,0,0,0-.17.12.12,0,0,0-.17,0,.13.13,0,0,0,0,.18A.14.14,0,0,0,235.57,138.94Z"></path><path class="cls-10" d="M235.18,139.44a.13.13,0,0,0,.12.13.13.13,0,0,0,.13-.13.12.12,0,0,0-.13-.12A.12.12,0,0,0,235.18,139.44Z"></path><path class="cls-10" d="M237.57,139.57a.12.12,0,0,0,.12-.13.12.12,0,0,0-.12-.12.12.12,0,0,0-.13.12A.13.13,0,0,0,237.57,139.57Z"></path><path class="cls-10" d="M237.31,139.94a.12.12,0,0,0,.05.18.13.13,0,0,0,.17-.05.13.13,0,0,0-.05-.17A.14.14,0,0,0,237.31,139.94Z"></path><path class="cls-10" d="M237.36,138.77a.11.11,0,0,0-.05.17.13.13,0,0,0,.17.05.14.14,0,0,0,.05-.18A.12.12,0,0,0,237.36,138.77Z"></path><path class="cls-10" d="M236.94,140.31a.14.14,0,0,0-.05.18.13.13,0,0,0,.17,0,.11.11,0,0,0,.05-.17A.13.13,0,0,0,236.94,140.31Z"></path><path class="cls-10" d="M237.11,138.53a.11.11,0,0,0-.05-.17.12.12,0,0,0-.17,0,.13.13,0,0,0,.05.17A.13.13,0,0,0,237.11,138.53Z"></path><path class="cls-10" d="M236.31,140.57a.13.13,0,0,0,.13.13.12.12,0,0,0,.12-.13.12.12,0,0,0-.12-.12A.13.13,0,0,0,236.31,140.57Z"></path><path class="cls-10" d="M236.56,138.31a.12.12,0,0,0-.12-.13.13.13,0,0,0,0,.26A.12.12,0,0,0,236.56,138.31Z"></path><path class="cls-10" d="M235.76,140.36a.13.13,0,0,0,.22.13.12.12,0,0,0,0-.18A.13.13,0,0,0,235.76,140.36Z"></path><path class="cls-10" d="M235.81,138.36a.13.13,0,0,0-.05.17.13.13,0,0,0,.17,0,.11.11,0,0,0,0-.17A.12.12,0,0,0,235.81,138.36Z"></path><path class="cls-10" d="M235.39,139.9a.12.12,0,0,0,0,.17.13.13,0,0,0,.17.05.14.14,0,0,0,0-.18A.15.15,0,0,0,235.39,139.9Z"></path><path class="cls-10" d="M235.57,138.94a.13.13,0,0,0,0-.17.12.12,0,0,0-.17,0,.13.13,0,0,0,0,.18A.14.14,0,0,0,235.57,138.94Z"></path><path class="cls-10" d="M235.18,139.44a.13.13,0,0,0,.12.13.13.13,0,0,0,.13-.13.12.12,0,0,0-.13-.12A.12.12,0,0,0,235.18,139.44Z"></path><path class="cls-10" d="M236.31,138.31a.13.13,0,0,0,.13.13.13.13,0,0,0,0-.26A.13.13,0,0,0,236.31,138.31Z"></path><path class="cls-10" d="M236.94,138.57a.13.13,0,0,0,.17,0,.11.11,0,0,0-.05-.17.12.12,0,0,0-.17,0A.13.13,0,0,0,236.94,138.57Z"></path><path class="cls-10" d="M237.31,138.94a.13.13,0,0,0,.17.05.14.14,0,0,0,.05-.18.12.12,0,0,0-.17,0A.11.11,0,0,0,237.31,138.94Z"></path><path class="cls-10" d="M237.44,139.44a.13.13,0,0,0,.13.13.12.12,0,0,0,.12-.13.12.12,0,0,0-.12-.12A.12.12,0,0,0,237.44,139.44Z"></path><path class="cls-10" d="M237.36,140.12a.13.13,0,0,0,.17-.05.13.13,0,0,0-.05-.17.14.14,0,0,0-.17,0A.12.12,0,0,0,237.36,140.12Z"></path><path class="cls-10" d="M236.89,140.49a.13.13,0,0,0,.17,0,.11.11,0,0,0,.05-.17.13.13,0,0,0-.17-.05A.14.14,0,0,0,236.89,140.49Z"></path><path class="cls-10" d="M236.31,140.57a.13.13,0,0,0,.13.13.12.12,0,0,0,.12-.13.12.12,0,0,0-.12-.12A.13.13,0,0,0,236.31,140.57Z"></path><path class="cls-10" d="M235.81,140.53a.13.13,0,0,0,.17,0,.12.12,0,0,0,0-.18.13.13,0,0,0-.17.05A.13.13,0,0,0,235.81,140.53Z"></path><path class="cls-10" d="M235.35,140.07a.13.13,0,0,0,.17.05.14.14,0,0,0,0-.18.15.15,0,0,0-.18,0A.12.12,0,0,0,235.35,140.07Z"></path><path class="cls-10" d="M235.18,139.44a.13.13,0,0,0,.12.13.13.13,0,0,0,.13-.13.12.12,0,0,0-.13-.12A.12.12,0,0,0,235.18,139.44Z"></path><path class="cls-10" d="M235.39,139a.14.14,0,0,0,.18-.05.13.13,0,0,0,0-.17.12.12,0,0,0-.17,0A.13.13,0,0,0,235.39,139Z"></path><path class="cls-10" d="M235.76,138.53a.13.13,0,0,0,.17,0,.11.11,0,0,0,0-.17.12.12,0,0,0-.17,0A.13.13,0,0,0,235.76,138.53Z"></path><rect class="cls-11" x="200.32" y="123.82" width="38.85" height="12.48" transform="translate(439.49 260.12) rotate(180)"></rect><rect class="cls-12" x="213.71" y="110.84" width="12.07" height="38.44" transform="translate(349.81 -89.68) rotate(90)"></rect><path class="cls-10" d="M215.19,139.57a.13.13,0,0,0,.12-.13.12.12,0,0,0-.12-.12.12.12,0,0,0-.13.12A.13.13,0,0,0,215.19,139.57Z"></path><path class="cls-10" d="M214.93,139.94a.12.12,0,1,0,.21.13.13.13,0,0,0,0-.17A.13.13,0,0,0,214.93,139.94Z"></path><path class="cls-10" d="M215,138.77a.12.12,0,0,0,0,.17.13.13,0,0,0,.17.05.14.14,0,0,0,0-.18A.12.12,0,0,0,215,138.77Z"></path><path class="cls-10" d="M214.56,140.31a.12.12,0,0,0-.05.18.13.13,0,0,0,.17,0,.13.13,0,0,0,0-.17A.13.13,0,0,0,214.56,140.31Z"></path><path class="cls-10" d="M214.73,138.53a.13.13,0,0,0,0-.17.12.12,0,0,0-.17,0,.11.11,0,0,0,.05.17A.13.13,0,0,0,214.73,138.53Z"></path><path class="cls-10" d="M213.92,140.57a.13.13,0,0,0,.14.13.13.13,0,0,0,.12-.13.13.13,0,0,0-.12-.12A.13.13,0,0,0,213.92,140.57Z"></path><path class="cls-10" d="M214.18,138.31a.13.13,0,0,0-.12-.13.13.13,0,1,0,0,.26A.13.13,0,0,0,214.18,138.31Z"></path><path class="cls-10" d="M213.38,140.36a.12.12,0,0,0,0,.17.13.13,0,1,0,.13-.22A.13.13,0,0,0,213.38,140.36Z"></path><path class="cls-10" d="M213.42,138.36a.12.12,0,0,0,0,.17.13.13,0,0,0,.17,0,.13.13,0,0,0,0-.17A.13.13,0,0,0,213.42,138.36Z"></path><path class="cls-10" d="M213,139.9a.13.13,0,0,0,0,.17.14.14,0,0,0,.18.05.13.13,0,0,0,0-.18A.14.14,0,0,0,213,139.9Z"></path><path class="cls-10" d="M213.18,138.94a.12.12,0,0,0,0-.17.13.13,0,0,0-.18,0,.14.14,0,0,0,0,.18A.13.13,0,0,0,213.18,138.94Z"></path><path class="cls-10" d="M212.79,139.44a.13.13,0,0,0,.26,0,.13.13,0,0,0-.26,0Z"></path><path class="cls-10" d="M215.19,139.57a.13.13,0,0,0,.12-.13.12.12,0,0,0-.12-.12.12.12,0,0,0-.13.12A.13.13,0,0,0,215.19,139.57Z"></path><path class="cls-10" d="M214.93,139.94a.12.12,0,1,0,.21.13.13.13,0,0,0,0-.17A.13.13,0,0,0,214.93,139.94Z"></path><path class="cls-10" d="M215,138.77a.12.12,0,0,0,0,.17.13.13,0,0,0,.17.05.14.14,0,0,0,0-.18A.12.12,0,0,0,215,138.77Z"></path><path class="cls-10" d="M214.56,140.31a.12.12,0,0,0-.05.18.13.13,0,0,0,.17,0,.13.13,0,0,0,0-.17A.13.13,0,0,0,214.56,140.31Z"></path><path class="cls-10" d="M214.73,138.53a.13.13,0,0,0,0-.17.12.12,0,0,0-.17,0,.11.11,0,0,0,.05.17A.13.13,0,0,0,214.73,138.53Z"></path><path class="cls-10" d="M213.92,140.57a.13.13,0,0,0,.14.13.13.13,0,0,0,.12-.13.13.13,0,0,0-.12-.12A.13.13,0,0,0,213.92,140.57Z"></path><path class="cls-10" d="M214.18,138.31a.13.13,0,0,0-.12-.13.13.13,0,1,0,0,.26A.13.13,0,0,0,214.18,138.31Z"></path><path class="cls-10" d="M213.38,140.36a.12.12,0,0,0,0,.17.13.13,0,1,0,.13-.22A.13.13,0,0,0,213.38,140.36Z"></path><path class="cls-10" d="M213.42,138.36a.12.12,0,0,0,0,.17.13.13,0,0,0,.17,0,.13.13,0,0,0,0-.17A.13.13,0,0,0,213.42,138.36Z"></path><path class="cls-10" d="M213,139.9a.13.13,0,0,0,0,.17.14.14,0,0,0,.18.05.13.13,0,0,0,0-.18A.14.14,0,0,0,213,139.9Z"></path><path class="cls-10" d="M213.18,138.94a.12.12,0,0,0,0-.17.13.13,0,0,0-.18,0,.14.14,0,0,0,0,.18A.13.13,0,0,0,213.18,138.94Z"></path><path class="cls-10" d="M212.79,139.44a.13.13,0,0,0,.26,0,.13.13,0,0,0-.26,0Z"></path><path class="cls-10" d="M213.92,138.31a.13.13,0,0,0,.14.13.13.13,0,0,0,0-.26A.13.13,0,0,0,213.92,138.31Z"></path><path class="cls-10" d="M214.56,138.57a.13.13,0,0,0,.17,0,.13.13,0,0,0,0-.17.12.12,0,0,0-.17,0A.11.11,0,0,0,214.56,138.57Z"></path><path class="cls-10" d="M214.93,138.94a.13.13,0,0,0,.17.05.14.14,0,0,0,0-.18.12.12,0,0,0-.21.13Z"></path><path class="cls-10" d="M215.06,139.44a.13.13,0,0,0,.13.13.13.13,0,0,0,.12-.13.12.12,0,0,0-.12-.12A.12.12,0,0,0,215.06,139.44Z"></path><path class="cls-10" d="M215,140.12a.13.13,0,0,0,.17-.05.13.13,0,0,0,0-.17.13.13,0,0,0-.17,0A.13.13,0,0,0,215,140.12Z"></path><path class="cls-10" d="M214.51,140.49a.13.13,0,0,0,.17,0,.13.13,0,0,0,0-.17.13.13,0,0,0-.17-.05A.12.12,0,0,0,214.51,140.49Z"></path><path class="cls-10" d="M213.92,140.57a.13.13,0,0,0,.14.13.13.13,0,0,0,.12-.13.13.13,0,0,0-.12-.12A.13.13,0,0,0,213.92,140.57Z"></path><path class="cls-10" d="M213.42,140.53a.13.13,0,1,0,.13-.22.13.13,0,0,0-.17.05A.12.12,0,0,0,213.42,140.53Z"></path><path class="cls-10" d="M213,140.07a.14.14,0,0,0,.18.05.13.13,0,0,0,0-.18.14.14,0,0,0-.17,0A.13.13,0,0,0,213,140.07Z"></path><path class="cls-10" d="M212.79,139.44a.13.13,0,0,0,.26,0,.13.13,0,0,0-.26,0Z"></path><path class="cls-10" d="M213,139a.13.13,0,0,0,.17-.05.12.12,0,0,0,0-.17.13.13,0,0,0-.18,0A.14.14,0,0,0,213,139Z"></path><path class="cls-10" d="M213.38,138.53a.13.13,0,0,0,.17,0,.13.13,0,0,0,0-.17.13.13,0,0,0-.18,0A.12.12,0,0,0,213.38,138.53Z"></path><rect class="cls-13" x="200.32" y="137.06" width="0.41" height="3.64" rx="0.2" ry="0.2" transform="translate(401.05 277.76) rotate(-180)"></rect><line class="cls-14" x1="236.56" y1="123.82" x2="236.56" y2="136.29"></line><line class="cls-14" x1="233.76" y1="123.82" x2="233.76" y2="136.29"></line><line class="cls-14" x1="230.96" y1="123.82" x2="230.96" y2="136.29"></line><line class="cls-14" x1="228.15" y1="123.82" x2="228.15" y2="136.29"></line><line class="cls-14" x1="225.35" y1="123.82" x2="225.35" y2="136.29"></line><line class="cls-14" x1="222.55" y1="123.82" x2="222.55" y2="136.29"></line><line class="cls-14" x1="219.75" y1="123.82" x2="219.75" y2="136.29"></line><line class="cls-14" x1="216.94" y1="123.82" x2="216.94" y2="136.29"></line><line class="cls-14" x1="214.14" y1="123.82" x2="214.14" y2="136.29"></line><line class="cls-14" x1="211.34" y1="123.82" x2="211.34" y2="136.29"></line><line class="cls-14" x1="208.53" y1="123.82" x2="208.53" y2="136.29"></line><line class="cls-14" x1="205.73" y1="123.82" x2="205.73" y2="136.29"></line><line class="cls-14" x1="202.93" y1="123.82" x2="202.93" y2="136.29"></line><rect class="cls-15" x="234.2" y="135.47" width="1.92" height="0.42" transform="translate(470.32 271.35) rotate(180)"></rect><rect class="cls-15" x="228.6" y="135.47" width="1.92" height="0.42" transform="translate(459.13 271.35) rotate(180)"></rect><rect class="cls-15" x="223.01" y="135.47" width="1.92" height="0.42" transform="translate(447.93 271.35) rotate(180)"></rect><rect class="cls-15" x="217.41" y="135.47" width="1.92" height="0.42" transform="translate(436.74 271.35) rotate(180)"></rect><rect class="cls-15" x="211.81" y="135.47" width="1.92" height="0.42" transform="translate(425.54 271.35) rotate(180)"></rect><rect class="cls-15" x="206.22" y="135.47" width="1.92" height="0.42" transform="translate(414.35 271.35) rotate(180)"></rect><rect class="cls-15" x="200.74" y="135.47" width="1.83" height="0.42" transform="translate(403.3 271.35) rotate(180)"></rect><path class="cls-11" d="M240.55,136.71H256.4c1.74,0,2.18,1,2.18,1h2.22s0-.66,0-1a14.54,14.54,0,0,0-.28-1.92,10.51,10.51,0,0,0-2.86-1.09,29.14,29.14,0,0,0-3.13-.7l-.12,0L253,130.14l0-.1c-.1-.35-.67-1.56-3.6-3.38a16.23,16.23,0,0,0-8.19-1.94,41.92,41.92,0,0,0-.66,4.35C240.34,131.26,240.55,136.71,240.55,136.71Z"></path><path class="cls-16" d="M254.84,137.1a2,2,0,0,0-1,1.36,6.08,6.08,0,0,0-.09,1.69H240.46V137.1Z"></path><path class="cls-16" d="M258.6,137.79h2.27a1.48,1.48,0,0,1,.14.53.42.42,0,0,1-.12.34v.65a.52.52,0,0,1,.11.36.6.6,0,0,1-.58.65h-1.25s0-.86,0-1.34A1.81,1.81,0,0,0,258.6,137.79Z"></path><path class="cls-16" d="M253.73,139.58c0,.06,0,.13,0,.2h5.47a1.41,1.41,0,0,0,0-.2,2.77,2.77,0,0,0-2.73-2.77h0A2.77,2.77,0,0,0,253.73,139.58Z"></path><path d="M256.49,137.18a2.4,2.4,0,1,1-2.4,2.4A2.4,2.4,0,0,1,256.49,137.18Zm0,3.78a1.38,1.38,0,1,0-1.38-1.38A1.38,1.38,0,0,0,256.49,141Z"></path><path class="cls-17" d="M256.49,138.2a1.38,1.38,0,1,1-1.38,1.38A1.37,1.37,0,0,1,256.49,138.2Zm-.8.79a.11.11,0,1,0-.11.19.11.11,0,1,0,.11-.19Zm.8-.51a.11.11,0,1,0,.11.11A.11.11,0,0,0,256.49,138.48Zm.55.15a.1.1,0,0,0-.15,0,.11.11,0,0,0,0,.15.12.12,0,0,0,.15,0A.11.11,0,0,0,257,138.63Zm.44,1.06a.11.11,0,1,0-.11-.11A.11.11,0,0,0,257.48,139.69Zm-.19.48a.11.11,0,0,0,.15,0,.1.1,0,0,0,0-.15.11.11,0,1,0-.11.19Zm0-1a.11.11,0,0,0,.15,0,.1.1,0,0,0,0-.15.1.1,0,0,0-.15,0A.11.11,0,0,0,257.25,139.14Zm-.36,1.35a.1.1,0,0,0,.15,0,.11.11,0,1,0-.15,0Zm-.4.19a.11.11,0,1,0-.11-.11A.11.11,0,0,0,256.49,140.68Zm0-.59a.51.51,0,1,0-.51-.51A.51.51,0,0,0,256.49,140.09Zm-.55.44a.1.1,0,0,0,.15,0,.11.11,0,1,0-.15,0Zm0-1.75a.12.12,0,0,0,.15,0,.11.11,0,0,0,0-.15.1.1,0,0,0-.15,0A.11.11,0,0,0,255.9,138.78Zm-.36,1.35a.11.11,0,1,0,0-.15A.1.1,0,0,0,255.54,140.13Zm0-.44a.11.11,0,1,0-.11-.11A.11.11,0,0,0,255.5,139.69Z"></path><path d="M256,139.58a.51.51,0,1,0,.51-.51A.51.51,0,0,0,256,139.58Z"></path><path d="M256.38,138.59a.11.11,0,1,0,.11-.11A.11.11,0,0,0,256.38,138.59Z"></path><path d="M256.93,138.82a.12.12,0,0,0,.15,0,.11.11,0,0,0,0-.15.1.1,0,0,0-.15,0A.11.11,0,0,0,256.93,138.82Z"></path><path d="M257.25,139.14a.11.11,0,0,0,.15,0,.1.1,0,0,0,0-.15.1.1,0,0,0-.15,0A.11.11,0,0,0,257.25,139.14Z"></path><path d="M257.37,139.58a.11.11,0,1,0,.11-.11A.11.11,0,0,0,257.37,139.58Z"></path><path d="M257.29,140.17a.11.11,0,0,0,.15,0,.1.1,0,0,0,0-.15.11.11,0,1,0-.11.19Z"></path><path d="M256.89,140.49a.1.1,0,0,0,.15,0,.11.11,0,1,0-.15,0Z"></path><path d="M256.38,140.57a.11.11,0,1,0,.11-.11A.11.11,0,0,0,256.38,140.57Z"></path><path d="M255.94,140.53a.1.1,0,0,0,.15,0,.11.11,0,1,0-.15,0Z"></path><path d="M255.54,140.13a.11.11,0,1,0,0-.15A.1.1,0,0,0,255.54,140.13Z"></path><path d="M255.39,139.58a.11.11,0,1,0,.11-.11A.11.11,0,0,0,255.39,139.58Z"></path><path d="M255.58,139.18a.11.11,0,1,0,.11-.19.11.11,0,1,0-.11.19Z"></path><path d="M255.9,138.78a.12.12,0,0,0,.15,0,.11.11,0,0,0,0-.15.1.1,0,0,0-.15,0A.11.11,0,0,0,255.9,138.78Z"></path><path class="cls-16" d="M234.13,139.58c0,.06,0,.13,0,.2h5.47a1.41,1.41,0,0,0,0-.2,2.77,2.77,0,0,0-2.73-2.77h0A2.77,2.77,0,0,0,234.13,139.58Z"></path><path d="M236.89,137.18a2.4,2.4,0,1,1-2.4,2.4A2.4,2.4,0,0,1,236.89,137.18Zm0,3.78a1.38,1.38,0,1,0-1.38-1.38A1.38,1.38,0,0,0,236.89,141Z"></path><path class="cls-17" d="M236.89,138.2a1.38,1.38,0,1,1-1.38,1.38A1.37,1.37,0,0,1,236.89,138.2Zm-.8.79a.11.11,0,0,0-.11.19.11.11,0,1,0,.11-.19Zm.8-.51a.11.11,0,1,0,.11.11A.11.11,0,0,0,236.89,138.48Zm.55.15a.1.1,0,0,0-.15,0,.11.11,0,0,0,0,.15.12.12,0,0,0,.15,0A.11.11,0,0,0,237.44,138.63Zm.44,1.06a.11.11,0,1,0-.11-.11A.11.11,0,0,0,237.88,139.69Zm-.19.48a.11.11,0,0,0,.15,0,.1.1,0,0,0,0-.15.11.11,0,0,0-.11.19Zm0-1a.11.11,0,0,0,.15,0,.1.1,0,0,0,0-.15.1.1,0,0,0-.15,0A.11.11,0,0,0,237.65,139.14Zm-.36,1.35a.1.1,0,0,0,.15,0,.11.11,0,1,0-.15,0Zm-.4.19a.11.11,0,1,0-.11-.11A.11.11,0,0,0,236.89,140.68Zm0-.59a.51.51,0,1,0-.51-.51A.51.51,0,0,0,236.89,140.09Zm-.55.44a.1.1,0,0,0,.15,0,.11.11,0,1,0-.15,0Zm0-1.75a.12.12,0,0,0,.15,0,.11.11,0,0,0,0-.15.1.1,0,0,0-.15,0A.11.11,0,0,0,236.3,138.78Zm-.36,1.35a.11.11,0,1,0,0-.15A.1.1,0,0,0,235.94,140.13Zm0-.44a.11.11,0,1,0-.11-.11A.11.11,0,0,0,235.9,139.69Z"></path><path d="M236.38,139.58a.51.51,0,1,0,.51-.51A.51.51,0,0,0,236.38,139.58Z"></path><path d="M236.78,138.59a.11.11,0,1,0,.11-.11A.11.11,0,0,0,236.78,138.59Z"></path><path d="M237.33,138.82a.12.12,0,0,0,.15,0,.11.11,0,0,0,0-.15.1.1,0,0,0-.15,0A.11.11,0,0,0,237.33,138.82Z"></path><path d="M237.65,139.14a.11.11,0,0,0,.15,0,.1.1,0,0,0,0-.15.1.1,0,0,0-.15,0A.11.11,0,0,0,237.65,139.14Z"></path><path d="M237.77,139.58a.11.11,0,1,0,.11-.11A.11.11,0,0,0,237.77,139.58Z"></path><path d="M237.69,140.17a.11.11,0,0,0,.15,0,.1.1,0,0,0,0-.15.11.11,0,0,0-.11.19Z"></path><path d="M237.29,140.49a.1.1,0,0,0,.15,0,.11.11,0,1,0-.15,0Z"></path><path d="M236.78,140.57a.11.11,0,1,0,.11-.11A.11.11,0,0,0,236.78,140.57Z"></path><path d="M236.34,140.53a.1.1,0,0,0,.15,0,.11.11,0,1,0-.15,0Z"></path><path d="M235.94,140.13a.11.11,0,1,0,0-.15A.1.1,0,0,0,235.94,140.13Z"></path><path d="M235.79,139.58a.11.11,0,1,0,.11-.11A.11.11,0,0,0,235.79,139.58Z"></path><path d="M236,139.18a.11.11,0,1,0,.11-.19.11.11,0,0,0-.11.19Z"></path><path d="M236.3,138.78a.12.12,0,0,0,.15,0,.11.11,0,0,0,0-.15.1.1,0,0,0-.15,0A.11.11,0,0,0,236.3,138.78Z"></path><path class="cls-16" d="M228.91,139.58v.2h5.48c0-.07,0-.14,0-.2a2.77,2.77,0,0,0-2.73-2.77h0A2.77,2.77,0,0,0,228.91,139.58Z"></path><path d="M231.66,137.18a2.4,2.4,0,1,1-2.39,2.4A2.4,2.4,0,0,1,231.66,137.18Zm0,3.78a1.38,1.38,0,1,0-1.38-1.38A1.38,1.38,0,0,0,231.66,141Z"></path><path class="cls-17" d="M231.66,138.2a1.38,1.38,0,1,1-1.38,1.38A1.38,1.38,0,0,1,231.66,138.2Zm-.8.79a.1.1,0,0,0-.15,0,.11.11,0,1,0,.15,0Zm.8-.51a.11.11,0,1,0,.11.11A.11.11,0,0,0,231.66,138.48Zm.56.15a.11.11,0,0,0-.16,0,.11.11,0,0,0,.05.15.13.13,0,0,0,.15,0C232.28,138.72,232.27,138.65,232.22,138.63Zm.43,1.06a.11.11,0,1,0,0-.22.11.11,0,1,0,0,.22Zm-.18.48a.12.12,0,0,0,.15,0,.11.11,0,1,0-.19-.11A.1.1,0,0,0,232.47,140.17Zm0-1a.11.11,0,1,0,.19-.11c0-.06-.1-.08-.15,0A.1.1,0,0,0,232.43,139.14Zm-.37,1.35a.11.11,0,0,0,.16,0,.12.12,0,0,0,0-.15.12.12,0,0,0-.15,0A.11.11,0,0,0,232.06,140.49Zm-.4.19a.11.11,0,1,0-.11-.11A.11.11,0,0,0,231.66,140.68Zm0-.59a.51.51,0,1,0,0-1,.51.51,0,0,0,0,1Zm-.55.44a.1.1,0,0,0,.15,0,.11.11,0,0,0,0-.15.12.12,0,0,0-.16,0A.11.11,0,0,0,231.11,140.53Zm0-1.75a.13.13,0,0,0,.16,0,.11.11,0,0,0,0-.15.1.1,0,0,0-.15,0A.11.11,0,0,0,231.07,138.78Zm-.36,1.35a.11.11,0,1,0,0-.15A.11.11,0,0,0,230.71,140.13Zm0-.44a.11.11,0,1,0-.11-.11A.11.11,0,0,0,230.67,139.69Z"></path><path d="M231.16,139.58a.5.5,0,0,0,.5.51.51.51,0,1,0,0-1A.5.5,0,0,0,231.16,139.58Z"></path><path d="M231.55,138.59a.11.11,0,1,0,.11-.11A.11.11,0,0,0,231.55,138.59Z"></path><path d="M232.11,138.82a.13.13,0,0,0,.15,0c0-.06,0-.13,0-.15a.11.11,0,0,0-.16,0A.11.11,0,0,0,232.11,138.82Z"></path><path d="M232.43,139.14a.11.11,0,1,0,.19-.11c0-.06-.1-.08-.15,0A.1.1,0,0,0,232.43,139.14Z"></path><path d="M232.54,139.58a.11.11,0,0,0,.11.11.11.11,0,1,0,0-.22A.11.11,0,0,0,232.54,139.58Z"></path><path d="M232.47,140.17a.12.12,0,0,0,.15,0,.11.11,0,1,0-.19-.11A.1.1,0,0,0,232.47,140.17Z"></path><path d="M232.06,140.49a.11.11,0,0,0,.16,0,.12.12,0,0,0,0-.15.12.12,0,0,0-.15,0A.11.11,0,0,0,232.06,140.49Z"></path><path d="M231.55,140.57a.11.11,0,1,0,.11-.11A.11.11,0,0,0,231.55,140.57Z"></path><path d="M231.11,140.53a.1.1,0,0,0,.15,0,.11.11,0,0,0,0-.15.12.12,0,0,0-.16,0A.11.11,0,0,0,231.11,140.53Z"></path><path d="M230.71,140.13a.11.11,0,1,0,0-.15A.11.11,0,0,0,230.71,140.13Z"></path><path d="M230.56,139.58a.11.11,0,1,0,.11-.11A.11.11,0,0,0,230.56,139.58Z"></path><path d="M230.75,139.18a.11.11,0,1,0,.11-.19.1.1,0,0,0-.15,0A.11.11,0,0,0,230.75,139.18Z"></path><path d="M231.07,138.78a.13.13,0,0,0,.16,0,.11.11,0,0,0,0-.15.1.1,0,0,0-.15,0A.11.11,0,0,0,231.07,138.78Z"></path><path class="cls-16" d="M210.74,139.58a1.41,1.41,0,0,0,0,.2h5.47a1.41,1.41,0,0,0,0-.2,2.77,2.77,0,0,0-2.73-2.77h0A2.77,2.77,0,0,0,210.74,139.58Z"></path><path d="M213.5,137.18a2.4,2.4,0,1,1-2.4,2.4A2.4,2.4,0,0,1,213.5,137.18Zm0,3.78a1.38,1.38,0,1,0-1.39-1.38A1.38,1.38,0,0,0,213.5,141Z"></path><path class="cls-17" d="M213.5,138.2a1.38,1.38,0,1,1-1.39,1.38A1.38,1.38,0,0,1,213.5,138.2Zm-.81.79c-.05,0-.11,0-.15,0a.11.11,0,0,0,.19.11A.1.1,0,0,0,212.69,139Zm.81-.51a.11.11,0,1,0,.11.11A.11.11,0,0,0,213.5,138.48Zm.55.15a.1.1,0,0,0-.15,0,.1.1,0,0,0,0,.15.12.12,0,0,0,.15,0A.11.11,0,0,0,214.05,138.63Zm.44,1.06a.11.11,0,1,0-.11-.11A.11.11,0,0,0,214.49,139.69Zm-.19.48a.11.11,0,1,0,0-.15A.1.1,0,0,0,214.3,140.17Zm0-1a.11.11,0,1,0,.19-.11.1.1,0,0,0-.15,0A.1.1,0,0,0,214.26,139.14Zm-.36,1.35a.1.1,0,0,0,.15,0,.11.11,0,0,0-.11-.19A.1.1,0,0,0,213.9,140.49Zm-.4.19a.11.11,0,1,0-.11-.11A.11.11,0,0,0,213.5,140.68Zm0-.59a.51.51,0,0,0,0-1,.51.51,0,0,0,0,1Zm-.56.44a.11.11,0,1,0,.12-.19.11.11,0,0,0-.12.19Zm0-1.75a.12.12,0,0,0,.15,0,.11.11,0,0,0,0-.15.11.11,0,0,0-.16,0C212.89,138.65,212.88,138.72,212.91,138.78Zm-.37,1.35a.12.12,0,0,0,.15,0,.1.1,0,0,0,0-.15.11.11,0,0,0-.19.11Zm0-.44a.11.11,0,1,0-.11-.11A.11.11,0,0,0,212.51,139.69Z"></path><path d="M213,139.58a.51.51,0,0,0,.51.51.51.51,0,0,0,0-1A.51.51,0,0,0,213,139.58Z"></path><path d="M213.39,138.59a.11.11,0,1,0,.11-.11A.11.11,0,0,0,213.39,138.59Z"></path><path d="M213.94,138.82a.12.12,0,0,0,.15,0,.11.11,0,0,0,0-.15.1.1,0,0,0-.15,0A.1.1,0,0,0,213.94,138.82Z"></path><path d="M214.26,139.14a.11.11,0,1,0,.19-.11.1.1,0,0,0-.15,0A.1.1,0,0,0,214.26,139.14Z"></path><path d="M214.38,139.58a.11.11,0,1,0,.11-.11A.11.11,0,0,0,214.38,139.58Z"></path><path d="M214.3,140.17a.11.11,0,1,0,0-.15A.1.1,0,0,0,214.3,140.17Z"></path><path d="M213.9,140.49a.1.1,0,0,0,.15,0,.11.11,0,0,0-.11-.19A.1.1,0,0,0,213.9,140.49Z"></path><path d="M213.39,140.57a.11.11,0,1,0,.11-.11A.11.11,0,0,0,213.39,140.57Z"></path><path d="M212.94,140.53a.11.11,0,1,0,.12-.19.11.11,0,0,0-.12.19Z"></path><path d="M212.54,140.13a.12.12,0,0,0,.15,0,.1.1,0,0,0,0-.15.11.11,0,0,0-.19.11Z"></path><path d="M212.4,139.58a.11.11,0,1,0,.11-.11A.11.11,0,0,0,212.4,139.58Z"></path><path d="M212.58,139.18a.11.11,0,0,0,.15,0,.1.1,0,0,0,0-.15c-.05,0-.11,0-.15,0A.11.11,0,0,0,212.58,139.18Z"></path><path d="M212.91,138.78a.12.12,0,0,0,.15,0,.11.11,0,0,0,0-.15.11.11,0,0,0-.16,0C212.89,138.65,212.88,138.72,212.91,138.78Z"></path><path class="cls-16" d="M205.51,139.58c0,.06,0,.13,0,.2H211c0-.07,0-.14,0-.2a2.77,2.77,0,0,0-2.74-2.77h0A2.77,2.77,0,0,0,205.51,139.58Z"></path><path d="M208.27,137.18a2.4,2.4,0,1,1-2.39,2.4A2.41,2.41,0,0,1,208.27,137.18Zm0,3.78a1.38,1.38,0,1,0-1.38-1.38A1.38,1.38,0,0,0,208.27,141Z"></path><path class="cls-17" d="M208.27,138.2a1.38,1.38,0,1,1-1.38,1.38A1.37,1.37,0,0,1,208.27,138.2Zm-.8.79a.1.1,0,0,0-.15,0,.1.1,0,0,0,0,.15.11.11,0,1,0,.11-.19Zm.8-.51a.11.11,0,1,0,.11.11A.11.11,0,0,0,208.27,138.48Zm.55.15a.1.1,0,0,0-.15,0,.11.11,0,0,0,0,.15.12.12,0,0,0,.15,0A.11.11,0,0,0,208.82,138.63Zm.44,1.06a.11.11,0,1,0-.11-.11A.11.11,0,0,0,209.26,139.69Zm-.19.48a.11.11,0,0,0,.15,0,.1.1,0,0,0,0-.15.11.11,0,0,0-.15,0A.12.12,0,0,0,209.07,140.17Zm0-1a.11.11,0,0,0,.15,0,.1.1,0,0,0,0-.15.1.1,0,0,0-.15,0A.12.12,0,0,0,209,139.14Zm-.36,1.35a.1.1,0,0,0,.15,0,.11.11,0,1,0-.15,0Zm-.4.19a.11.11,0,1,0-.11-.11A.11.11,0,0,0,208.27,140.68Zm0-.59a.51.51,0,1,0-.51-.51A.51.51,0,0,0,208.27,140.09Zm-.55.44a.1.1,0,0,0,.15,0,.11.11,0,1,0-.15,0Zm0-1.75a.12.12,0,0,0,.15,0,.11.11,0,0,0,0-.15.1.1,0,0,0-.15,0A.11.11,0,0,0,207.68,138.78Zm-.36,1.35a.11.11,0,1,0,0-.15A.1.1,0,0,0,207.32,140.13Zm0-.44a.11.11,0,1,0-.11-.11A.11.11,0,0,0,207.28,139.69Z"></path><path d="M207.76,139.58a.51.51,0,1,0,.51-.51A.51.51,0,0,0,207.76,139.58Z"></path><path d="M208.16,138.59a.11.11,0,1,0,.11-.11A.11.11,0,0,0,208.16,138.59Z"></path><path d="M208.71,138.82a.12.12,0,0,0,.15,0,.11.11,0,0,0,0-.15.1.1,0,0,0-.15,0A.11.11,0,0,0,208.71,138.82Z"></path><path d="M209,139.14a.11.11,0,0,0,.15,0,.1.1,0,0,0,0-.15.1.1,0,0,0-.15,0A.12.12,0,0,0,209,139.14Z"></path><path d="M209.15,139.58a.11.11,0,1,0,.11-.11A.11.11,0,0,0,209.15,139.58Z"></path><path d="M209.07,140.17a.11.11,0,0,0,.15,0,.1.1,0,0,0,0-.15.11.11,0,0,0-.15,0A.12.12,0,0,0,209.07,140.17Z"></path><path d="M208.67,140.49a.1.1,0,0,0,.15,0,.11.11,0,1,0-.15,0Z"></path><path d="M208.16,140.57a.11.11,0,1,0,.11-.11A.11.11,0,0,0,208.16,140.57Z"></path><path d="M207.72,140.53a.1.1,0,0,0,.15,0,.11.11,0,1,0-.15,0Z"></path><path d="M207.32,140.13a.11.11,0,1,0,0-.15A.1.1,0,0,0,207.32,140.13Z"></path><path d="M207.17,139.58a.11.11,0,1,0,.11-.11A.11.11,0,0,0,207.17,139.58Z"></path><path d="M207.36,139.18a.11.11,0,1,0,.11-.19.1.1,0,0,0-.15,0A.1.1,0,0,0,207.36,139.18Z"></path><path d="M207.68,138.78a.12.12,0,0,0,.15,0,.11.11,0,0,0,0-.15.1.1,0,0,0-.15,0A.11.11,0,0,0,207.68,138.78Z"></path><path class="cls-18" d="M260.9,137.63s.35-1.54-3.17-2.15a69.59,69.59,0,0,0-10.75-.65h-6.49l.06,1.88H253c1.82,0,4.21-.12,4.9.31s.71.66.71.66Z"></path><path class="cls-19" d="M248.91,130a.2.2,0,0,1,.2-.2c.7,0,3,0,3.13.06a15.69,15.69,0,0,1,1.56,3.1c.08.44,0,3.74,0,3.74h-4.89Z"></path><path class="cls-19" d="M242.12,124.71a34.64,34.64,0,0,0-.64,4.85c0,1.86,0,7.15,0,7.15"></path><rect class="cls-20" x="242.5" y="137.1" width="5.31" height="3.05"></rect><rect class="cls-21" x="249.36" y="137.44" width="3.64" height="0.48" rx="0.24" ry="0.24" transform="translate(502.36 275.36) rotate(180)"></rect><rect class="cls-21" x="249.36" y="139.66" width="3.64" height="0.48" rx="0.24" ry="0.24" transform="translate(502.36 279.79) rotate(180)"></rect><path class="cls-13" d="M252.86,130.41c0,.1.34.74.74,1.56l.37.78c0,.08.16.35.37.35a.27.27,0,0,0,.12,0l.09,0,0,0-.12,0L253,130.14l0-.1h0A.28.28,0,0,0,252.86,130.41Z"></path><path class="cls-21" d="M253,130.14a.19.19,0,0,0-.08.24c.06.16,1.08,2.23,1.11,2.33s.18.36.35.27Z"></path><path class="cls-19" d="M255,133.07a1.27,1.27,0,0,1,.14.8c0,.62,0,1.18,0,1.18s.16.1.16.5v1.16"></path><path class="cls-13" d="M252.86,133.29c.32,0,.42,0,.45-.11v0c.06-.15.1-.35-.17-1l0-.09c-.44-1-.87-1.86-1.36-1.86h-1.66a.66.66,0,0,0-.48.2.67.67,0,0,0-.2.48,9.46,9.46,0,0,0,.05,1.1v.09c.07.53.16.84,1.15,1A18,18,0,0,0,252.86,133.29Z"></path><path class="cls-21" d="M251.75,130.34h-1.66a.58.58,0,0,0-.58.58c0,.36,0,.81.05,1.09.07.51.05.83,1.08,1a9.86,9.86,0,0,0,2.57.14c0-.1.14-.23-.16-.9S252.24,130.34,251.75,130.34Z"></path><rect class="cls-21" x="252.82" y="133.65" width="0.31" height="0.44" transform="translate(505.95 267.74) rotate(180)"></rect><rect class="cls-21" x="252.6" y="133.53" width="0.53" height="0.87" rx="0.27" ry="0.27" transform="translate(505.73 267.93) rotate(-180)"></rect><rect class="cls-21" x="252.97" y="133" width="0.16" height="0.92" transform="translate(506.1 266.91) rotate(180)"></rect><rect class="cls-20" x="252.64" y="131.14" width="0.7" height="2.11" rx="0.35" ry="0.35" transform="translate(505.98 264.4) rotate(-180)"></rect><rect class="cls-21" x="258.92" y="134.83" width="0.3" height="0.49" rx="0.15" ry="0.15" transform="translate(518.15 270.15) rotate(-180)"></rect><rect class="cls-21" x="259.14" y="134.53" width="0.09" height="0.52" transform="translate(518.36 269.57) rotate(180)"></rect><rect class="cls-20" x="258.95" y="133.47" width="0.4" height="1.2" rx="0.2" ry="0.2" transform="translate(518.29 268.15) rotate(180)"></rect><rect class="cls-21" x="249.12" y="134.83" width="0.76" height="1.29" rx="0.38" ry="0.38" transform="translate(498.99 270.94) rotate(-180)"></rect><rect class="cls-20" x="249.54" y="134.95" width="0.16" height="1.07" rx="0.08" ry="0.08" transform="translate(499.25 270.97) rotate(180)"></rect><path class="cls-17" d="M260.25,134.59a10.26,10.26,0,0,1,.28,1.54,13.77,13.77,0,0,1,.06,1.55h.21s.1,0,.12-.12a9.69,9.69,0,0,0-.07-1.46,5.81,5.81,0,0,0-.33-1.31A1.58,1.58,0,0,0,260.25,134.59Z"></path><path class="cls-22" d="M259.45,137a1.72,1.72,0,0,0,.36.51v-1.27a.64.64,0,0,0-.25,0C259.36,136.23,259.28,136.73,259.45,137Z"></path><path class="cls-17" d="M259.81,136.25v1.27a.27.27,0,0,0,.12.06c.23.07.87.08.88,0a1,1,0,0,0-.37-1A2.48,2.48,0,0,0,259.81,136.25Z"></path><rect class="cls-16" x="242.58" y="126.3" width="1.54" height="0.8" rx="0.26" ry="0.26" transform="translate(486.7 253.41) rotate(180)"></rect><polygon class="cls-23" points="331.71 251.47 338.52 233.76 337.47 233.76 330.19 251.47 331.71 251.47"></polygon><polygon class="cls-23" points="334.3 251.56 342.81 238.82 341.99 238.63 333.1 251.29 334.3 251.56"></polygon><polygon class="cls-23" points="302.03 251.43 295.22 233.71 296.27 233.71 303.55 251.43 302.03 251.43"></polygon><polygon class="cls-23" points="299.44 251.52 290.93 238.77 291.76 238.59 300.64 251.25 299.44 251.52"></polygon><polygon class="cls-23" points="318.19 249.49 316.69 249.49 317.1 229.36 317.79 229.36 318.19 249.49"></polygon><polygon class="cls-23" points="302.3 251.43 302.65 252.22 303.67 252.22 303.35 251.43 302.3 251.43"></polygon><polygon class="cls-23" points="331.46 251.43 331.11 252.22 330.09 252.22 330.42 251.43 331.46 251.43"></polygon><polygon class="cls-23" points="299.71 251.47 300.19 252.37 301.19 252.37 300.33 251.32 299.71 251.47"></polygon><polygon class="cls-23" points="334.06 251.47 333.58 252.37 332.58 252.37 333.44 251.32 334.06 251.47"></polygon><rect class="cls-23" x="316.91" y="249.49" width="1.07" height="1.61" transform="translate(-1.05 1.34) rotate(-0.24)"></rect><rect class="cls-23" x="300.55" y="256.85" width="4.21" height="2.62"></rect><rect class="cls-23" x="329.11" y="256.85" width="4.21" height="2.62"></rect><path class="cls-24" d="M334.79,258l-9.15,1a80.88,80.88,0,0,1-17.46,0L299,258v-5.68l7.43-1a81.23,81.23,0,0,1,20.9,0l7.43,1Z"></path><path class="cls-6" d="M304.35,255.33a1.7,1.7,0,1,1-1.7-1.69A1.7,1.7,0,0,1,304.35,255.33Z"></path><circle class="cls-24" cx="302.65" cy="255.35" r="1.01"></circle><path class="cls-6" d="M312.25,255.35a.54.54,0,1,1-.54-.54A.54.54,0,0,1,312.25,255.35Z"></path><path class="cls-6" d="M314.16,255.35a.54.54,0,1,1-.54-.54A.54.54,0,0,1,314.16,255.35Z"></path><path class="cls-6" d="M316.07,255.35a.54.54,0,1,1-.54-.54A.54.54,0,0,1,316.07,255.35Z"></path><path class="cls-6" d="M318,255.35a.54.54,0,1,1-.54-.54A.54.54,0,0,1,318,255.35Z"></path><path class="cls-6" d="M319.89,255.35a.54.54,0,1,1-.54-.54A.54.54,0,0,1,319.89,255.35Z"></path><path class="cls-6" d="M321.8,255.35a.54.54,0,0,1-.54.53.54.54,0,0,1,0-1.07A.54.54,0,0,1,321.8,255.35Z"></path><path class="cls-6" d="M323.71,255.35a.54.54,0,1,1-.54-.54A.54.54,0,0,1,323.71,255.35Z"></path><path class="cls-24" d="M324.67,227.79a.5.5,0,0,1-.5-.5c0-2.56-3.25-4.64-7.24-4.64s-7.23,2.08-7.23,4.64a.5.5,0,0,1-.5.5.5.5,0,0,1-.5-.5c0-3.11,3.69-5.64,8.23-5.64s8.24,2.53,8.24,5.64A.5.5,0,0,1,324.67,227.79Z"></path><path class="cls-24" d="M327.69,224.8a.5.5,0,0,1-.5-.5c0-3.67-4.6-6.65-10.26-6.65s-10.25,3-10.25,6.65a.5.5,0,0,1-1,0c0-4.22,5.05-7.65,11.25-7.65s11.26,3.43,11.26,7.65A.5.5,0,0,1,327.69,224.8Z"></path><path class="cls-24" d="M330.7,221.81a.5.5,0,0,1-.5-.5c0-4.77-5.95-8.66-13.27-8.66s-13.27,3.89-13.27,8.66a.5.5,0,0,1-.5.5.5.5,0,0,1-.5-.5c0-5.32,6.41-9.66,14.27-9.66s14.27,4.34,14.27,9.66A.5.5,0,0,1,330.7,221.81Z"></path><path class="cls-24" d="M271.18,313.67h16.21l-.37-1.76c-1.73-4.65-10.6-4.65-10.6-4.65-2.19.12-4.34,2.18-4.95,5.06Z"></path><path class="cls-23" d="M258.58,294H243.79l1.94,17H262Z"></path><path class="cls-23" d="M264.89,313.23h-.77v.2H236.49v-2.36H262l-3.44-17H243.79l-.82-7.23a1.85,1.85,0,0,1,1.84-1.76h12.68a1.86,1.86,0,0,1,1.85,1.76Z"></path><polygon class="cls-24" points="262.02 311.07 245.73 311.07 243.94 295.38 243.79 294.04 258.58 294.04 262.02 311.07"></polygon><polygon class="cls-25" points="244.47 299.71 243.79 294.04 260.86 294.04 262.05 299.71 244.47 299.71"></polygon><path class="cls-23" d="M219.27,311.57h-1.93a.35.35,0,0,1-.37-.34v-1.86a.35.35,0,0,1,.37-.34h1.39a.36.36,0,0,1,.35.25l.55,1.87A.34.34,0,0,1,219.27,311.57Z"></path><path class="cls-23" d="M222,311.57H220a.36.36,0,0,1-.37-.34v-1.86A.36.36,0,0,1,220,309h1.39a.37.37,0,0,1,.36.25l.54,1.87A.34.34,0,0,1,222,311.57Z"></path><path class="cls-23" d="M224.62,311.57h-1.93a.35.35,0,0,1-.37-.34v-1.86a.35.35,0,0,1,.37-.34h1.38a.36.36,0,0,1,.36.25l.55,1.87A.35.35,0,0,1,224.62,311.57Z"></path><path class="cls-23" d="M227.29,311.57h-1.93a.36.36,0,0,1-.37-.34v-1.86a.36.36,0,0,1,.37-.34h1.39a.37.37,0,0,1,.36.25l.54,1.87A.34.34,0,0,1,227.29,311.57Z"></path><path class="cls-23" d="M230,311.57H228a.36.36,0,0,1-.37-.34v-1.86A.36.36,0,0,1,228,309h1.39a.36.36,0,0,1,.36.25l.54,1.87A.34.34,0,0,1,230,311.57Z"></path><path class="cls-23" d="M232.64,311.57h-1.93a.35.35,0,0,1-.37-.34v-1.86a.35.35,0,0,1,.37-.34h1.39a.36.36,0,0,1,.35.25l.55,1.87A.35.35,0,0,1,232.64,311.57Z"></path><path class="cls-23" d="M235.32,311.57h-1.94a.36.36,0,0,1-.37-.34v-1.86a.36.36,0,0,1,.37-.34h1.39a.37.37,0,0,1,.36.25l.54,1.87A.34.34,0,0,1,235.32,311.57Z"></path><path class="cls-23" d="M238,311.57h-1.94a.36.36,0,0,1-.37-.34v-1.86a.36.36,0,0,1,.37-.34h1.39a.36.36,0,0,1,.36.25l.55,1.87A.35.35,0,0,1,238,311.57Z"></path><path class="cls-23" d="M240.66,311.57h-1.93a.35.35,0,0,1-.37-.34v-1.86a.35.35,0,0,1,.37-.34h1.39a.36.36,0,0,1,.35.25l.55,1.87A.35.35,0,0,1,240.66,311.57Z"></path><path class="cls-23" d="M243.34,311.57H241.4a.36.36,0,0,1-.37-.34v-1.86a.36.36,0,0,1,.37-.34h1.39a.37.37,0,0,1,.36.25l.54,1.87A.34.34,0,0,1,243.34,311.57Z"></path><path class="cls-23" d="M246,311.57h-1.94a.35.35,0,0,1-.36-.34v-1.86a.35.35,0,0,1,.36-.34h1.39a.36.36,0,0,1,.36.25l.55,1.87A.35.35,0,0,1,246,311.57Z"></path><path class="cls-23" d="M248.68,311.57h-1.93a.35.35,0,0,1-.37-.34v-1.86a.35.35,0,0,1,.37-.34h1.39a.35.35,0,0,1,.35.25l.55,1.87A.34.34,0,0,1,248.68,311.57Z"></path><path class="cls-23" d="M251.36,311.57h-1.94a.36.36,0,0,1-.37-.34v-1.86a.36.36,0,0,1,.37-.34h1.39a.36.36,0,0,1,.36.25l.54,1.87A.34.34,0,0,1,251.36,311.57Z"></path><path class="cls-23" d="M254,311.57H252.1a.35.35,0,0,1-.37-.34v-1.86a.35.35,0,0,1,.37-.34h1.39a.36.36,0,0,1,.35.25l.55,1.87A.35.35,0,0,1,254,311.57Z"></path><path class="cls-23" d="M256.7,311.57h-1.93a.36.36,0,0,1-.37-.34v-1.86a.36.36,0,0,1,.37-.34h1.39a.37.37,0,0,1,.36.25l.54,1.87A.34.34,0,0,1,256.7,311.57Z"></path><path class="cls-23" d="M258.65,311.77a1.55,1.55,0,0,1-1.61,1.47H217a1.54,1.54,0,0,1-1.61-1.47,1.41,1.41,0,0,1,.47-1,1.67,1.67,0,0,1,1.1-.43H257a1.63,1.63,0,0,1,.45.06A1.5,1.5,0,0,1,258.65,311.77Z"></path><path class="cls-26" d="M258.65,311.77a1.55,1.55,0,0,1-1.61,1.47H217a1.54,1.54,0,0,1-1.61-1.47,1.41,1.41,0,0,1,.47-1,1.67,1.67,0,0,1,1.1-.43H257a1.63,1.63,0,0,1,.45.06A1.5,1.5,0,0,1,258.65,311.77Z"></path><path class="cls-23" d="M258.65,311.77a1.55,1.55,0,0,1-1.61,1.47H243.49a1.5,1.5,0,0,1-1.12-1.4,2.28,2.28,0,0,1,0-.27,1.34,1.34,0,0,1,.46-.77,1.42,1.42,0,0,1,.34-.25l.19-.08a1.78,1.78,0,0,1,.61-.11h13.5A1.5,1.5,0,0,1,258.65,311.77Z"></path><path class="cls-23" d="M287.05,246.2H283l-4.6,49.89h4.09a1.49,1.49,0,0,0,1.36-1.41l4.33-47.06A1.2,1.2,0,0,0,287.05,246.2Z"></path><path class="cls-24" d="M280.72,296.09H219.41a1.19,1.19,0,0,1-1.1-1.41l4.34-47.06A1.49,1.49,0,0,1,224,246.2h61.31a1.19,1.19,0,0,1,1.09,1.42l-4.33,47.06A1.49,1.49,0,0,1,280.72,296.09Z"></path><path class="cls-26" d="M280.72,296.09H219.41a1.19,1.19,0,0,1-1.1-1.41l4.34-47.06A1.49,1.49,0,0,1,224,246.2h61.31a1.19,1.19,0,0,1,1.09,1.42l-4.33,47.06A1.49,1.49,0,0,1,280.72,296.09Z"></path><polygon class="cls-24" points="278.87 286.08 223.19 286.08 226.27 250.78 281.96 250.78 278.87 286.08"></polygon><path class="cls-23" d="M278.1,288.84H223.23a2.53,2.53,0,0,1-2.57-2.81L223.73,251a3.13,3.13,0,0,1,3.06-2.82h54.88a2.55,2.55,0,0,1,2.57,2.82L281.17,286A3.14,3.14,0,0,1,278.1,288.84Z"></path><polygon class="cls-24" points="278.87 286.08 223.19 286.08 226.27 250.78 281.96 250.78 278.87 286.08"></polygon><polygon class="cls-27" points="278.87 286.08 223.19 286.08 226.27 250.78 281.96 250.78 278.87 286.08"></polygon><polygon class="cls-24" points="238.94 263.57 231.9 263.57 232.51 256.52 234.53 256.52 234.47 257.12 233.06 257.12 232.55 262.97 238.4 262.97 238.91 257.12 237.47 257.12 237.52 256.52 239.56 256.52 238.94 263.57"></polygon><polygon class="cls-24" points="236.04 260.05 235.44 260.05 236.03 253.31 236.63 253.31 236.04 260.05"></polygon><polygon class="cls-24" points="235.72 260.39 233.58 259.23 233.9 258.7 235.76 259.7 237.72 258.6 237.98 259.11 235.72 260.39"></polygon><path class="cls-6" d="M264,259.62l-1,3.66H261.8l.47-1.67L261.12,263h-.54l-.45-1.32-.47,1.65h-1.13l1.05-3.66h1l.62,1.95,1.71-1.95Z"></path><path class="cls-6" d="M267.21,261.69a1.76,1.76,0,0,1-1.66,1.65.82.82,0,0,1-.83-.43l-.11.37h-1.12l1.11-3.88h1.19l-.35,1.21a1.17,1.17,0,0,1,.71-.24A1.11,1.11,0,0,1,267.21,261.69Zm-1.2.06a.37.37,0,0,0-.38-.45.62.62,0,0,0-.58.65.37.37,0,0,0,.38.45C265.74,262.4,266,262.15,266,261.75Z"></path><path class="cls-6" d="M270.88,261.69a1.77,1.77,0,0,1-1.67,1.65.83.83,0,0,1-.78-.36L268,264.3h-1.18l1.12-3.88h1.11l-.08.26a1.2,1.2,0,0,1,.81-.31A1.11,1.11,0,0,1,270.88,261.69Zm-1.21.06a.36.36,0,0,0-.38-.45c-.31,0-.54.26-.57.65a.36.36,0,0,0,.38.45C269.41,262.4,269.64,262.15,269.67,261.75Z"></path><path class="cls-6" d="M270.78,263.07l.47-.8a2,2,0,0,0,1,.26c.26,0,.35-.06.36-.14,0-.24-1.45,0-1.36-.94.06-.74.81-1.08,1.7-1.08a2.57,2.57,0,0,1,1.1.21l-.47.81a1.58,1.58,0,0,0-.84-.22c-.27,0-.37.08-.37.14,0,.27,1.44,0,1.35.95-.06.72-.81,1.08-1.69,1.08A2.55,2.55,0,0,1,270.78,263.07Z"></path><path class="cls-6" d="M261.62,276.79l-1,3.67h-1.12l.47-1.67-1.15,1.34h-.55l-.45-1.32-.47,1.65h-1.13l1.06-3.67h1l.63,1.95,1.7-1.95Z"></path><path class="cls-6" d="M264.87,278.87a1.76,1.76,0,0,1-1.67,1.64.83.83,0,0,1-.83-.43l-.1.38h-1.13l1.12-3.89h1.18l-.35,1.22a1.14,1.14,0,0,1,.72-.25A1.12,1.12,0,0,1,264.87,278.87Zm-1.21.05a.37.37,0,0,0-.38-.45c-.31,0-.54.26-.58.66a.38.38,0,0,0,.39.45C263.4,279.58,263.63,279.32,263.66,278.92Z"></path><path class="cls-6" d="M268.53,278.87a1.75,1.75,0,0,1-1.66,1.64.84.84,0,0,1-.79-.36l-.38,1.32h-1.18l1.11-3.88h1.11l-.07.26a1.18,1.18,0,0,1,.8-.31A1.11,1.11,0,0,1,268.53,278.87Zm-1.2.05a.38.38,0,0,0-.39-.45c-.3,0-.54.26-.57.66a.37.37,0,0,0,.38.45C267.06,279.58,267.29,279.32,267.33,278.92Z"></path><path class="cls-6" d="M268.43,280.25l.48-.81a1.93,1.93,0,0,0,1,.26c.26,0,.36-.05.36-.13,0-.25-1.44,0-1.36-.95.06-.73.81-1.08,1.71-1.08a2.76,2.76,0,0,1,1.1.21l-.48.81a1.6,1.6,0,0,0-.83-.21c-.28,0-.37.07-.38.14,0,.26,1.44,0,1.36.95-.06.71-.82,1.07-1.7,1.07A2.72,2.72,0,0,1,268.43,280.25Z"></path><path class="cls-6" d="M244.13,262.4h2.32l-.2,1h-4.18l.16-.83,2.52-2c.62-.5.81-.79.81-1.15s-.28-.61-.81-.61a1.55,1.55,0,0,0-1.18.58l-.86-.62a2.73,2.73,0,0,1,2.23-1c1.17,0,1.93.62,1.93,1.48,0,.65-.3,1.21-1.27,2Z"></path><path class="cls-6" d="M249.21,259l-.3,1.05h.33c1.38,0,2.07.56,2.07,1.51,0,1.24-1.06,2-2.56,2a3.14,3.14,0,0,1-2-.64l.62-.94a2.31,2.31,0,0,0,1.49.5c.76,0,1.18-.29,1.18-.8s-.3-.63-1.07-.63h-1.5l.9-3.11h3.38l-.22,1Z"></path><path class="cls-6" d="M256.39,261.57a2,2,0,0,1-2.21,2,2.08,2.08,0,0,1-2.23-2.27,3.25,3.25,0,0,1,3.32-3.44,2.92,2.92,0,0,1,1.54.37l-.58.93a1.87,1.87,0,0,0-1-.26,1.81,1.81,0,0,0-1.84,1.54,1.85,1.85,0,0,1,1.27-.43A1.63,1.63,0,0,1,256.39,261.57Zm-1.26.11c0-.47-.36-.75-.88-.75a.9.9,0,0,0-1,.87.8.8,0,0,0,.9.78A.89.89,0,0,0,255.13,261.68Z"></path><path class="cls-6" d="M242.58,274.82l-1.11,5.52H240.2l.9-4.49H240l.21-1Z"></path><path class="cls-6" d="M247.73,279.18h-.91l-.22,1.16h-1.25l.24-1.16h-3l.17-.86,3.25-3.5h1.39l-3,3.32h1.46l.2-1h1.19l-.2,1h.9Z"></path><path class="cls-6" d="M253.17,279.18h-.91l-.23,1.16h-1.24l.23-1.16h-3l.17-.86,3.25-3.5h1.39l-3,3.32h1.45l.21-1h1.19l-.2,1h.9Z"></path><polygon class="cls-24" points="236.75 280.25 229.7 280.25 230.32 273.2 232.33 273.2 232.27 273.8 230.86 273.8 230.35 279.65 236.2 279.65 236.71 273.8 235.27 273.8 235.32 273.2 237.36 273.2 236.75 280.25"></polygon><polygon class="cls-24" points="233.83 276.73 233.23 276.73 233.82 269.99 234.42 269.99 233.83 276.73"></polygon><polygon class="cls-24" points="235.85 271.44 234.08 270.33 232.05 271.34 231.82 270.81 234.16 269.65 236.2 270.93 235.85 271.44"></polygon><polygon class="cls-28" points="260.94 248.15 250.06 288.83 253.72 288.83 264.48 248.15 260.94 248.15"></polygon><polygon class="cls-28" points="266.59 248.15 255.71 288.83 262.97 288.83 273.72 248.15 266.59 248.15"></polygon><path class="cls-23" d="M231.39,321.93h4.92l7.88,93.32a1.78,1.78,0,0,1-1.78,1.93h0a1.77,1.77,0,0,1-1.77-1.61Z"></path><path class="cls-23" d="M349.65,321.28h4.92l7.88,94a1.78,1.78,0,0,1-1.78,1.93h0a1.78,1.78,0,0,1-1.77-1.61Z"></path><rect class="cls-24" x="206.32" y="321.28" width="146.78" height="16.56"></rect><polygon class="cls-29" points="327.33 321.4 326.75 337.82 353.11 337.83 353.11 321.28 327.33 321.4"></polygon><rect class="cls-30" x="206.34" y="321.4" width="118.75" height="16.56"></rect><path class="cls-23" d="M209.57,321.28h-4.93l-.14,100.35a1.79,1.79,0,0,0,1.79,1.79h0a1.79,1.79,0,0,0,1.79-1.76Z"></path><path class="cls-23" d="M327.83,321.28H322.9l-.14,100.35a1.79,1.79,0,0,0,1.79,1.79h0a1.79,1.79,0,0,0,1.79-1.76Z"></path><path class="cls-26" d="M204.64,321.28l-.14,100.35a1.79,1.79,0,0,0,1.79,1.79h0a1.79,1.79,0,0,0,1.79-1.76l1.49-100.38Z"></path><path class="cls-26" d="M327.83,321.28H322.9l-.14,100.35a1.79,1.79,0,0,0,1.79,1.79h0a1.79,1.79,0,0,0,1.79-1.76Z"></path><path class="cls-23" d="M200.55,317.3h0c0-2.23.83-4,1.85-4H356.81c1,0,1.85,1.81,1.86,4h0c0,2.23-.83,4-1.86,4.05H202.4C201.38,321.34,200.55,319.53,200.55,317.3Z"></path><path class="cls-31" d="M200.55,317.3h0c0-2.23.83-4,1.85-4H356.81c1,0,1.85,1.81,1.86,4h0c0,2.23-.83,4-1.86,4.05H202.4C201.38,321.34,200.55,319.53,200.55,317.3Z"></path><path class="cls-23" d="M318.81,317.3h0c0-2.23.83-4,1.86-4h36.14c1,0,1.85,1.81,1.86,4h0c0,2.23-.83,4-1.86,4.05H320.67C319.64,321.34,318.81,319.53,318.81,317.3Z"></path><path class="cls-23" d="M282.81,306.77c-11.78,0-16.35-10.71-16.4-10.83l.92-.39c.24.58,6,14,21.92,9.2,16.13-4.85,29-39.2,29.09-39.55l.94.35c-.53,1.43-13.13,35.17-29.74,40.16A23.44,23.44,0,0,1,282.81,306.77Z"></path><rect class="cls-23" x="313.92" y="259.36" width="23.6" height="54.32"></rect><rect class="cls-29" x="313.92" y="259.36" width="23.6" height="54.32"></rect><rect class="cls-23" x="297.04" y="259.36" width="23.6" height="54.32"></rect><path class="cls-6" d="M313.1,270.94a4.83,4.83,0,1,1-4.83-4.83A4.83,4.83,0,0,1,313.1,270.94Z"></path><path class="cls-24" d="M311.16,271a2.89,2.89,0,1,1-2.89-2.89A2.88,2.88,0,0,1,311.16,271Z"></path><path class="cls-6" d="M310.69,284a2.42,2.42,0,1,1-2.42-2.41A2.41,2.41,0,0,1,310.69,284Z"></path><path class="cls-24" d="M309.72,284a1.45,1.45,0,1,1-1.45-1.45A1.45,1.45,0,0,1,309.72,284Z"></path><rect class="cls-6" x="307.9" y="273.86" width="0.74" height="8.66"></rect><rect class="cls-29" x="298.77" y="290.82" width="20.13" height="20.13"></rect><path class="cls-23" d="M310.24,302.22a1.19,1.19,0,1,1-1.19-1.19A1.19,1.19,0,0,1,310.24,302.22Z"></path><path class="cls-23" d="M309.05,301c-.12-2.87,6.8-8.85,2.19-8.85s-7.63,3.25-7.46,5.15S309.05,301,309.05,301Z"></path><path class="cls-23" d="M309.07,303.5c-2.77.79-10.21-4.54-9.13-.05s4.95,6.65,6.75,6S309.07,303.5,309.07,303.5Z"></path><path class="cls-23" d="M310.34,301.59c2.34,1.66,2.85,10.79,5.67,7.14s2.09-8,.48-9.05S310.34,301.59,310.34,301.59Z"></path><polygon class="cls-32" points="249.92 412.26 256.56 410.29 254.54 394.6 246.37 397.5 249.92 412.26"></polygon><polygon class="cls-33" points="245.46 393.13 254.07 389.92 255.37 401.21 247.72 403.35 245.46 393.13"></polygon><path class="cls-23" d="M257.12,409.16l-7.57,2.06a.57.57,0,0,0-.39.67l1.15,7.21a1.29,1.29,0,0,0,1.48,1.1c2.62-.77,3.85-1.29,7.18-2.19,2-.56,6.72-1.89,9.59-2.41s2.28-3.88,1-4c-5.66-.35-8.92-1-11.19-2.29A1.72,1.72,0,0,0,257.12,409.16Z"></path><path class="cls-24" d="M261.85,409.58a.92.92,0,0,0,0-.91.57.57,0,0,0-.48-.35c-.89-.12-2.5,1.63-2.68,1.83a.19.19,0,0,0,0,.18.17.17,0,0,0,.15.09,9.28,9.28,0,0,0,1.82-.18A2,2,0,0,0,261.85,409.58Zm-.56-.95a.3.3,0,0,1,.23.19.58.58,0,0,1,0,.58c-.24.39-1.12.6-2.39.69C259.84,409.4,260.82,408.57,261.29,408.63Z"></path><path class="cls-24" d="M258.91,410.38c.57-.57,1.24-2.22.91-2.92a.61.61,0,0,0-.68-.33.78.78,0,0,0-.62.38c-.53.81.11,2.72.12,2.8a.15.15,0,0,0,.11.11h.08Zm.27-2.94c.23,0,.34.07.35.16a3.3,3.3,0,0,1-.66,2.33,3.54,3.54,0,0,1-.08-2.25.5.5,0,0,1,.31-.22Z"></path><path class="cls-23" d="M216.27,327.23s39.33,3.32,38.36,20.39c-.79,14-2.86,10.19,1.21,51.76l-9.89.54s-10.07-34-8.71-47.51c-11.09,0-36.47,1-40.15-9a44.57,44.57,0,0,1-2.63-15.85Z"></path><polygon class="cls-24" points="244.37 401.84 257.3 399.62 257.09 393.9 243.71 396.88 244.37 401.84"></polygon><polygon class="cls-32" points="275.56 414.32 281.82 411.35 277.44 396.15 269.81 400.27 275.56 414.32"></polygon><polygon class="cls-33" points="268.24 396.09 276.26 391.61 279.27 402.56 272.04 405.85 268.24 396.09"></polygon><path class="cls-23" d="M282.21,410.15l-7.16,3.19a.58.58,0,0,0-.29.73L277,421a1.28,1.28,0,0,0,1.64.85c2.47-1.15,3.61-1.85,6.75-3.25,1.94-.86,6.36-2.89,9.12-3.85s1.66-4.18.4-4.08c-5.65.52-9,.35-11.41-.55A1.72,1.72,0,0,0,282.21,410.15Z"></path><path class="cls-24" d="M286.94,409.85a.91.91,0,0,0-.14-.9.59.59,0,0,0-.53-.28c-.9,0-2.22,2-2.37,2.23a.18.18,0,0,0,0,.17.14.14,0,0,0,.16.06,9.19,9.19,0,0,0,1.77-.45A1.89,1.89,0,0,0,286.94,409.85Zm-.69-.85a.28.28,0,0,1,.25.15.55.55,0,0,1,.13.57c-.17.42-1,.76-2.25,1C284.93,410,285.78,409,286.25,409Z"></path><path class="cls-24" d="M284.16,411.08c.48-.64.9-2.37.46-3a.6.6,0,0,0-.73-.23.77.77,0,0,0-.55.47c-.39.88.53,2.67.54,2.75a.19.19,0,0,0,.14.09h.07A.13.13,0,0,0,284.16,411.08Zm-.18-2.94c.23-.06.35,0,.37.11a3.29,3.29,0,0,1-.3,2.4,3.55,3.55,0,0,1-.41-2.21.49.49,0,0,1,.26-.27Z"></path><path class="cls-23" d="M228,327.23c.26,0,44.09,4.51,44.15,19.37.09,24.59,7.11,52.78,7.11,52.78l-8.66,4.29S255.49,373.11,255.71,354c-12.05-3.46-43.25,2.35-46.93-7.64-3-8.18-1.39-19.08-1.39-19.08Z"></path><polygon class="cls-24" points="269.19 404.91 280.8 399.69 279.86 394.93 267.62 399.16 269.19 404.91"></polygon><path class="cls-32" d="M208.47,274.76c-1.28,2.42-2.35,4.75-3.42,7.18s-2,4.86-2.94,7.36-1.71,5.07-2.39,7.73a41.13,41.13,0,0,0-1.31,8.48,17.46,17.46,0,0,0,.5,5,11,11,0,0,0,1.16,2.86,9.83,9.83,0,0,0,1.05,1.42l.32.34c.19.17.38.35.57.5a6.66,6.66,0,0,0,1,.63,8.34,8.34,0,0,0,1.66.63,11.2,11.2,0,0,0,1.38.27,19,19,0,0,0,2.39.12,31.65,31.65,0,0,0,4.24-.26,80,80,0,0,0,15.43-3.58l-.92-4.38c-5,.35-10.11.72-14.91.7-1.19-.06-2.36-.06-3.43-.17a11.56,11.56,0,0,1-1.43-.25c-.39-.1-.72-.25-.6-.24a.72.72,0,0,1,.21.12,1.24,1.24,0,0,1,.22.18h0l-.07-.14a3.58,3.58,0,0,1-.2-.71,11,11,0,0,1-.08-2.63,34.5,34.5,0,0,1,1.34-6.6c.65-2.32,1.45-4.57,2.32-6.86s1.81-4.58,2.82-6.85,2.06-4.56,3.1-6.69Z"></path><path class="cls-32" d="M225,310.12l5.34-2.66,2.33,5.76s-6.2,2.22-7.4.57Z"></path><polygon class="cls-32" points="234.49 308.74 236.67 312.62 232.66 313.18 230.33 307.42 234.49 308.74"></polygon><path class="cls-32" d="M224.35,284.49c1,2.51-.1-.33,1,2.1s2.2,4.81,3.36,7.19a139.77,139.77,0,0,0,7.84,14.12c.79,1.16,1.57,2.32,2.45,3.47.44.58.93,1.15,1.44,1.74.29.3.51.57.84.88l.47.45.27.26a6.85,6.85,0,0,0,2.57,1.36,11.23,11.23,0,0,0,1.53.32,15.14,15.14,0,0,0,2.52.1,31.73,31.73,0,0,0,4.35-.43,79.26,79.26,0,0,0,15.55-4.41l0-5.51c-5.07.61-10.26,1.26-15.14,1.46a33.09,33.09,0,0,1-3.45,0,9.43,9.43,0,0,1-1.38-.22,2.41,2.41,0,0,1-.42-.16c-.05,0,0-.06.21.08a.8.8,0,0,1,.21.15l-.07-.09-.22-.24c-.14-.14-.32-.38-.48-.57-.32-.41-.65-.85-1-1.32-.65-.94-1.29-2-1.92-3-1.25-2.11-2.42-4.34-3.57-6.6s-2.24-4.57-3.32-6.89c-2.16-4.63-2.13-4.15-4.14-8.82Z"></path><path class="cls-32" d="M265.29,306.9l7.11-1.48,2.79,7.71s-8.21.82-9.72-1.41Z"></path><polygon class="cls-32" points="277.8 307.37 280.51 312.58 275.19 313.13 272.4 305.42 277.8 307.37"></polygon><g id="Character"><path class="cls-34" d="M227.89,253.07a18,18,0,0,0,1.9,4.45,2.74,2.74,0,0,1-2.34.13Z"></path><path class="cls-23" d="M228.38,257.36a2.2,2.2,0,0,1-.56.1c-1.38,0-2.54-1.43-2.58-3.24s1.06-3.32,2.44-3.35a2.24,2.24,0,0,1,1.85,1,4,4,0,0,1,.73,2.26A3.24,3.24,0,0,1,228.38,257.36Zm-1.14-6.05a2.88,2.88,0,0,0-1.63,2.9c0,1.61,1,2.9,2.2,2.88a1.63,1.63,0,0,0,.45-.08,2.87,2.87,0,0,0,1.63-2.89,3.52,3.52,0,0,0-.66-2,1.84,1.84,0,0,0-1.54-.84A1.63,1.63,0,0,0,227.24,251.31Z"></path><path class="cls-32" d="M209.91,257.79l3.87,4,5.28,5.51a6.07,6.07,0,0,0-.92,2.1c-.48,1.65-.88,2.86,2.7,4.47a2.16,2.16,0,0,1,1.34,1.9c0,1-.8,2.13-4.34,2.19a16.11,16.11,0,0,1-9.49-3.16c-1.35-1-1.22-1.84-.37-3.23C210.47,267.67,210.4,262.15,209.91,257.79Z"></path><path class="cls-23" d="M229.14,252.81c0,.54-.15,1-.43,1s-.55-.4-.59-.94.15-1,.43-1S229.1,252.26,229.14,252.81Z"></path><path class="cls-32" d="M227.93,260.17a9.87,9.87,0,0,1-5.77,6.53,9.1,9.1,0,0,1-3,.68,8.41,8.41,0,0,1-6.67-2.72c-3.36-3.56-3.14-7.59-3.36-14.43a9.53,9.53,0,0,1,13.19-9.18C229,243.86,229.58,254,227.93,260.17Z"></path><path class="cls-30" d="M222.16,266.7a9.1,9.1,0,0,1-3,.68l-.11-.05.65-1.27S220.11,267.14,222.16,266.7Z"></path><rect class="cls-23" x="225.24" y="246.79" width="0.37" height="10.59" transform="translate(-77.82 401.77) rotate(-74.47)"></rect><path class="cls-23" d="M222.36,254.53c-1.2,2-2.67,4-3,6.33-.14,1-7.57,2.44-9.35.57a16.2,16.2,0,0,1-3.6-6.77,17.57,17.57,0,0,1-.49-9.39,8.29,8.29,0,0,1,2.84-4.61A5.07,5.07,0,0,1,214,240a10.88,10.88,0,0,1,16.8,10,1,1,0,0,1-.23.65,1,1,0,0,1-.85.15l-4.23-.51c-.52-.06-1.18-.23-1.27-.76-.06-.33-.41-2-.43-2.3Z"></path><path class="cls-32" d="M217.69,253.88a6.27,6.27,0,0,0,2.42,3.76c1.6,1.16,3.21-.48,3.2-2.43,0-1.74-1.16-4.16-3-4.54S217.32,252,217.69,253.88Z"></path></g><path class="cls-23" d="M211.82,237a2.26,2.26,0,0,1,2.2,1.48c.21.53.41,1.8-.18,2.07A19.54,19.54,0,0,0,211.82,237Z"></path><path class="cls-24" d="M196.92,274.79c.58-1.57,3.33-3.14,5-3.14h1.11a61.88,61.88,0,0,1,6.72.43,120.18,120.18,0,0,1,13.34,2.25c2,.53,4,1.21,5.53,1.79,2,.78,3.14,1.31,3.14,1.31s-2.17,14.42-3.29,28.75c-.62,8-.36,15.89-.56,21.33H194.46c-1.15-6.54-1-12.25-1.07-24.06C193.34,296.35,194.49,281.25,196.92,274.79Z"></path><path class="cls-33" d="M229.22,298.17c-.26,3-.51,6.16-.79,9.31-3.92-5.73-6.09-21.39-6.09-21.39Z"></path><path class="cls-24" d="M233.67,278.48c4.79,2.7,9.49,16.51,9.49,16.51l-11,8.28c-4.19-4-10.32-13.79-11-17.72C220.13,279.52,226,274.18,233.67,278.48Z"></path><path class="cls-23" d="M243.14,425.71a3.42,3.42,0,1,0,3.41-3.41,3.42,3.42,0,0,0-3.41,3.41Z"></path><path class="cls-23" d="M192.23,425.71a3.41,3.41,0,1,1-3.41-3.41,3.41,3.41,0,0,1,3.41,3.41Z"></path><path class="cls-23" d="M221,424.62a3.42,3.42,0,1,1-3.41-3.41,3.41,3.41,0,0,1,3.41,3.41Z"></path><path class="cls-23" d="M218.66,420.41v-6.6h9.77a30.45,30.45,0,0,1,5.72.54l18.2,3.53a1.66,1.66,0,0,1-.37,3.28Z"></path><path class="cls-23" d="M218.66,420.41v-6.6h-9.79a30.42,30.42,0,0,0-5.71.54l-20.46,3.27a1.65,1.65,0,0,0-1.31,1.94,1.68,1.68,0,0,0,1.68,1.34Z"></path><rect class="cls-23" x="212.61" y="380.97" width="12.1" height="34.85"></rect><rect class="cls-23" x="214.34" y="358.9" width="8.63" height="22.25"></rect><polygon class="cls-35" points="222.97 363.02 214.34 365.2 214.34 358.9 222.97 358.9 222.97 363.02"></polygon><rect class="cls-24" x="246.55" y="327.11" width="4.39" height="18.71"></rect><rect class="cls-36" x="246.55" y="327.11" width="4.39" height="18.71"></rect><path class="cls-24" d="M224.57,358.9V277.56a10.68,10.68,0,0,0-3.65-8l-5.8-5.08a10.67,10.67,0,0,0-7-2.64h-21l-10.23,10.89V358.9Z"></path><path class="cls-24" d="M255.75,343.16H208V358.9h55.56a5.65,5.65,0,0,0,5.65-5.65,5.71,5.71,0,0,0-.78-2.88h0A14.71,14.71,0,0,0,255.75,343.16Z"></path><path class="cls-36" d="M176.91,272.69V358.9h86.62a5.66,5.66,0,0,0,4.87-8.53,14.7,14.7,0,0,0-12.63-7.21H231.71a7.14,7.14,0,0,1-7.14-7.14V277.55a10.66,10.66,0,0,0-3.65-8l-5.8-5.08a10.64,10.64,0,0,0-7-2.64H187.15Z"></path><path class="cls-24" d="M217.6,358.9V277.56a10.68,10.68,0,0,0-3.65-8l-5.8-5.08a10.67,10.67,0,0,0-7-2.64H184.79a10.7,10.7,0,0,0-7.78,3.36l-4.17,4.44a10.7,10.7,0,0,0-2.9,7.32v73.83a8.15,8.15,0,0,0,8.14,8.15Z"></path><path class="cls-37" d="M217.6,358.9V277.56a10.68,10.68,0,0,0-3.65-8l-5.8-5.08a10.67,10.67,0,0,0-7-2.64H184.79a10.7,10.7,0,0,0-7.78,3.36l-4.17,4.44a10.7,10.7,0,0,0-2.9,7.32v73.83a8.15,8.15,0,0,0,8.14,8.15Z"></path><path class="cls-24" d="M233.85,332.82a45.21,45.21,0,0,1,29.81,0,4.24,4.24,0,0,0,5.25-2h0c.9-1.89-.3-4.34-2.73-5.19a52.76,52.76,0,0,0-34.82,0c-2.43.84-3.63,3.3-2.74,5.19h0A4.24,4.24,0,0,0,233.85,332.82Z"></path><path class="cls-36" d="M233.85,332.82a45.21,45.21,0,0,1,29.81,0,4.24,4.24,0,0,0,5.25-2h0c.9-1.89-.3-4.34-2.73-5.19a52.76,52.76,0,0,0-34.82,0c-2.43.84-3.63,3.3-2.74,5.19h0A4.24,4.24,0,0,0,233.85,332.82Z"></path><path class="cls-24" d="M536.38,138.6h0l0-.32C536.4,138.39,536.4,138.49,536.38,138.6Z"></path><path class="cls-24" d="M392.23,101.75a78.72,78.72,0,0,0-21.68,35.79H365A92.55,92.55,0,0,1,381.13,95Z"></path><path class="cls-38" d="M392.23,101.75a78.72,78.72,0,0,0-21.68,35.79H365A92.55,92.55,0,0,1,381.13,95Z"></path><path class="cls-24" d="M424.34,83.1a78.82,78.82,0,0,0-32.11,18.65L381.13,95a98,98,0,0,1,34.15-30.42Z"></path><path class="cls-37" d="M424.34,83.1a78.82,78.82,0,0,0-32.11,18.65L381.13,95a98,98,0,0,1,34.15-30.42Z"></path><path class="cls-24" d="M458.24,53.7,455.88,81a68.4,68.4,0,0,0-11.82-.86,73,73,0,0,0-19.72,3l-9.06-18.53A90.89,90.89,0,0,1,457,53.7C457.38,53.7,457.82,53.69,458.24,53.7Z"></path><path class="cls-27" d="M458.24,53.7,455.88,81a68.4,68.4,0,0,0-11.82-.86,73,73,0,0,0-19.72,3l-9.06-18.53A90.89,90.89,0,0,1,457,53.7C457.38,53.7,457.82,53.69,458.24,53.7Z"></path><path class="cls-24" d="M499.19,64.77,481.75,91.08A64.15,64.15,0,0,0,455.88,81l2.36-27.28A79.83,79.83,0,0,1,499.19,64.77Z"></path><path class="cls-39" d="M499.19,64.77,481.75,91.08A64.15,64.15,0,0,0,455.88,81l2.36-27.28A79.83,79.83,0,0,1,499.19,64.77Z"></path><path class="cls-24" d="M527.82,95.16l-27.59,15.21a62.54,62.54,0,0,0-18.48-19.29l17.44-26.31A76.07,76.07,0,0,1,527.82,95.16Z"></path><path class="cls-26" d="M527.82,95.16l-27.59,15.21a62.54,62.54,0,0,0-18.48-19.29l17.44-26.31A76.07,76.07,0,0,1,527.82,95.16Z"></path><path class="cls-24" d="M536.45,137.48l-27.17,0a64.69,64.69,0,0,0-9-27.13l27.59-15.21A80.72,80.72,0,0,1,536.45,137.48Z"></path><path class="cls-31" d="M536.45,137.48l-27.17,0a64.69,64.69,0,0,0-9-27.13l27.59-15.21A80.72,80.72,0,0,1,536.45,137.48Z"></path><path class="cls-24" d="M536.41,138.28c0,.11,0,.21,0,.32-.63,7.67-3.52,20.4-6.9,27.86l-22-4.7,1.66-8.43c.15-1.08.27-2.18.36-3.29h0l0-.67h0a67.82,67.82,0,0,0-.23-11.87l27.17,0c0,.16,0,.3,0,.46S536.42,138.17,536.41,138.28Z"></path><path class="cls-24" d="M368.66,166.71l-1.63.38q-.81-3.14-1.37-6.36a84.63,84.63,0,0,1-1-20h0l0-.33a1.84,1.84,0,0,1,0-.33c.08-.85.15-1.69.25-2.53h5.59a73.14,73.14,0,0,0-2.45,13.59c0,.11,0,.22,0,.33s0,.23,0,.34a67.1,67.1,0,0,0-.06,8.14A62.83,62.83,0,0,0,368.66,166.71Z"></path><path class="cls-36" d="M368.66,166.71l-1.63.38q-.81-3.14-1.37-6.36a84.63,84.63,0,0,1-1-20h0l0-.33a1.84,1.84,0,0,1,0-.33c.08-.85.15-1.69.25-2.53h5.59a73.14,73.14,0,0,0-2.45,13.59c0,.11,0,.22,0,.33s0,.23,0,.34a67.1,67.1,0,0,0-.06,8.14A62.83,62.83,0,0,0,368.66,166.71Z"></path><path class="cls-23" d="M534.89,160.21,532.67,166,528,165,484,155.63l-18.91-4a23.23,23.23,0,0,0,3.16-5.55,22.57,22.57,0,0,0,1.63-7.25l42,13.83v0Z"></path><path class="cls-23" d="M469.91,138.79a23.29,23.29,0,0,1-4.79,12.8l-17-3.63,5.18-14.64Z"></path><path class="cls-24" d="M459.89,138.93a15.93,15.93,0,0,1-3.29,8.78,16.67,16.67,0,0,1-5.25,4.55c-7.43,4.09-16.28,1.67-19.75-5.42s-.26-16.16,7.17-20.27,16.28-1.67,19.75,5.42A13.81,13.81,0,0,1,459.89,138.93Z"></path><path class="cls-24" d="M498.07,123.26a.53.53,0,0,1-.51-.39,38.91,38.91,0,0,0-6.4-12.94.52.52,0,0,1,.84-.61,40.23,40.23,0,0,1,6.57,13.29.52.52,0,0,1-.38.63Z"></path><path class="cls-24" d="M379.33,128a.43.43,0,0,1-.25,0,.53.53,0,0,1-.22-.7c.21-.4,21.3-39.94,59.14-42.18,18.49-1.09,36.26,5.49,48.74,18.07a.52.52,0,0,1-.73.73c-12.27-12.37-29.75-18.84-47.95-17.77-37.26,2.21-58.07,41.23-58.28,41.63A.51.51,0,0,1,379.33,128Z"></path><path class="cls-24" d="M527.78,170.39h-.12l-6.4-1.4a.51.51,0,0,1-.4-.61.52.52,0,0,1,.62-.4l6.4,1.4a.52.52,0,0,1-.1,1Z"></path><path class="cls-24" d="M516.7,168h-.12l-52-11.48a.52.52,0,0,1-.39-.62.53.53,0,0,1,.62-.39l52,11.48a.5.5,0,0,1,.39.61A.51.51,0,0,1,516.7,168Z"></path></svg>